<svg id="General" xmlns="http://www.w3.org/2000/svg" viewBox="0 0 45 45"><defs><style>.cls-1{fill:#00467f;}.cls-2{fill:#fff;}</style></defs><title>current</title><g id="Calendar_1_2x.png" data-name="Calendar 1@2x.png"><path class="cls-1" d="M20.5,35.7a2.38,2.38,0,0,1-1.1.6,5.07,5.07,0,0,1-1.3.2,2.72,2.72,0,0,1-2.4-1,3.66,3.66,0,0,1-.9-2.5H12.9a7.32,7.32,0,0,0,.3,2.2,4.35,4.35,0,0,0,1,1.6,4.78,4.78,0,0,0,1.7,1,7.32,7.32,0,0,0,2.2.3,7.61,7.61,0,0,0,2.1-.3,4.61,4.61,0,0,0,1.7-.9,4.43,4.43,0,0,0,1.2-1.5,4.64,4.64,0,0,0,.4-2.1,4.09,4.09,0,0,0-.7-2.5,3.45,3.45,0,0,0-2.1-1.4h0a3.74,3.74,0,0,0,1.5-1.3,3.29,3.29,0,0,0,.6-1.9,3.81,3.81,0,0,0-.4-1.9,3.25,3.25,0,0,0-1-1.3,5.3,5.3,0,0,0-1.5-.8,5.82,5.82,0,0,0-1.9-.3,4.64,4.64,0,0,0-2.1.4,4.18,4.18,0,0,0-1.5,1.1,5.07,5.07,0,0,0-.9,1.6,11.21,11.21,0,0,0-.4,2.1H15a5.07,5.07,0,0,1,.2-1.3,3.7,3.7,0,0,1,.5-1.1,2.36,2.36,0,0,1,.9-.8,2.77,2.77,0,0,1,1.3-.3,3.17,3.17,0,0,1,2,.6,2.41,2.41,0,0,1,.8,1.9,3.59,3.59,0,0,1-.2,1.1,5.55,5.55,0,0,1-.6.8,2.62,2.62,0,0,1-.9.5,4.25,4.25,0,0,1-1.1.2h-.8v1.6c.4,0,.7-.1,1.1-.1a5.07,5.07,0,0,1,1.3.2,1.7,1.7,0,0,1,1,.6,3.59,3.59,0,0,1,.7,1,3,3,0,0,1,0,2.6A1.77,1.77,0,0,1,20.5,35.7ZM30,38h1.9V21.9H30.5a3.39,3.39,0,0,1-.6,1.5,2.84,2.84,0,0,1-1,.9,5.78,5.78,0,0,1-1.4.5,7.57,7.57,0,0,1-1.5.1v1.5h4ZM41,5H37V2a1,1,0,0,0-2,0V5H11V2a.94.94,0,0,0-1-1A.94.94,0,0,0,9,2V5H5A4,4,0,0,0,1,9V41a4,4,0,0,0,4,4H41a4,4,0,0,0,4-4V9A4,4,0,0,0,41,5Zm2,36a2,2,0,0,1-2,2H5a2,2,0,0,1-2-2V17H43Zm0-26H3V9A2,2,0,0,1,5,7H9v3a.94.94,0,0,0,1,1,.94.94,0,0,0,1-1V7H35v3a1,1,0,0,0,2,0V7h4a2,2,0,0,1,2,2Z"/><path class="cls-2" d="M19.5,34.7a2.38,2.38,0,0,1-1.1.6,5.07,5.07,0,0,1-1.3.2,2.72,2.72,0,0,1-2.4-1,3.66,3.66,0,0,1-.9-2.5H11.9a7.32,7.32,0,0,0,.3,2.2,4.35,4.35,0,0,0,1,1.6,4.78,4.78,0,0,0,1.7,1,7.32,7.32,0,0,0,2.2.3,7.61,7.61,0,0,0,2.1-.3,4.61,4.61,0,0,0,1.7-.9,4.43,4.43,0,0,0,1.2-1.5,4.64,4.64,0,0,0,.4-2.1,4.09,4.09,0,0,0-.7-2.5,3.45,3.45,0,0,0-2.1-1.4h0a3.74,3.74,0,0,0,1.5-1.3,3.29,3.29,0,0,0,.6-1.9,3.81,3.81,0,0,0-.4-1.9,3.25,3.25,0,0,0-1-1.3,5.3,5.3,0,0,0-1.5-.8,5.82,5.82,0,0,0-1.9-.3,4.64,4.64,0,0,0-2.1.4,4.18,4.18,0,0,0-1.5,1.1,5.07,5.07,0,0,0-.9,1.6,11.21,11.21,0,0,0-.4,2.1H14a5.07,5.07,0,0,1,.2-1.3,3.7,3.7,0,0,1,.5-1.1,2.36,2.36,0,0,1,.9-.8,2.77,2.77,0,0,1,1.3-.3,3.17,3.17,0,0,1,2,.6,2.41,2.41,0,0,1,.8,1.9,3.59,3.59,0,0,1-.2,1.1,5.55,5.55,0,0,1-.6.8,2.62,2.62,0,0,1-.9.5,4.25,4.25,0,0,1-1.1.2h-.8v1.6c.4,0,.7-.1,1.1-.1a5.07,5.07,0,0,1,1.3.2,1.7,1.7,0,0,1,1,.6,3.59,3.59,0,0,1,.7,1,3,3,0,0,1,0,2.6A1.77,1.77,0,0,1,19.5,34.7ZM29,37h1.9V20.9H29.5a3.39,3.39,0,0,1-.6,1.5,2.84,2.84,0,0,1-1,.9,5.78,5.78,0,0,1-1.4.5,7.57,7.57,0,0,1-1.5.1v1.5h4ZM40,4H36V1a1,1,0,0,0-2,0V4H10V1A.94.94,0,0,0,9,0,.94.94,0,0,0,8,1V4H4A4,4,0,0,0,0,8V40a4,4,0,0,0,4,4H40a4,4,0,0,0,4-4V8A4,4,0,0,0,40,4Zm2,36a2,2,0,0,1-2,2H4a2,2,0,0,1-2-2V16H42Zm0-26H2V8A2,2,0,0,1,4,6H8V9a.94.94,0,0,0,1,1,.94.94,0,0,0,1-1V6H34V9a1,1,0,0,0,2,0V6h4a2,2,0,0,1,2,2Z"/></g></svg>