<svg id="E-Commerce" xmlns="http://www.w3.org/2000/svg" viewBox="0 0 45 33"><defs><style>.cls-1{fill:#995716;}.cls-2{fill:#ffe650;}</style></defs><title>Hover_payments</title><g id="Wallet_2" data-name="Wallet 2"><path class="cls-1" d="M10,9H8a.94.94,0,0,0-1,1,.94.94,0,0,0,1,1h2a.94.94,0,0,0,1-1A.94.94,0,0,0,10,9Zm6,18H14a1,1,0,0,0,0,2h2a1,1,0,0,0,0-2ZM16,9H14a.94.94,0,0,0-1,1,.94.94,0,0,0,1,1h2a.94.94,0,0,0,1-1A.94.94,0,0,0,16,9ZM10,27H8a1,1,0,0,0,0,2h2a1,1,0,0,0,0-2ZM32,11h2a.94.94,0,0,0,1-1,.94.94,0,0,0-1-1H32a.94.94,0,0,0-1,1A.94.94,0,0,0,32,11Zm9,2V5a4,4,0,0,0-4-4H5A4,4,0,0,0,1,5V29a4,4,0,0,0,4,4H37a4,4,0,0,0,4-4V25a4,4,0,0,0,4-4V17A4,4,0,0,0,41,13ZM3,5A2,2,0,0,1,5,3H37a2,2,0,0,1,2,2v.6A4.66,4.66,0,0,0,37,5H5a3.61,3.61,0,0,0-2,.6ZM39,29a2,2,0,0,1-2,2H5a2,2,0,0,1-2-2V9A2,2,0,0,1,5,7H37a2,2,0,0,1,2,2v4H35a4,4,0,0,0-4,4v4a4,4,0,0,0,4,4h4Zm4-8a2,2,0,0,1-2,2H35a2,2,0,0,1-2-2V17a2,2,0,0,1,2-2h6a2,2,0,0,1,2,2ZM22,27H20a1,1,0,0,0,0,2h2a1,1,0,0,0,0-2ZM28,9H26a.94.94,0,0,0-1,1,.94.94,0,0,0,1,1h2a.94.94,0,0,0,1-1A.94.94,0,0,0,28,9Zm8,9a1,1,0,1,0,1,1A.94.94,0,0,0,36,18Zm-2,9H32a1,1,0,0,0,0,2h2a1,1,0,0,0,0-2ZM22,9H20a.94.94,0,0,0-1,1,.94.94,0,0,0,1,1h2a.94.94,0,0,0,1-1A.94.94,0,0,0,22,9Zm6,18H26a1,1,0,0,0,0,2h2a1,1,0,0,0,0-2Z"/><path class="cls-2" d="M9,8H7A.94.94,0,0,0,6,9a.94.94,0,0,0,1,1H9a.94.94,0,0,0,1-1A.94.94,0,0,0,9,8Zm6,18H13a1,1,0,0,0,0,2h2a1,1,0,0,0,0-2ZM15,8H13a.94.94,0,0,0-1,1,.94.94,0,0,0,1,1h2a.94.94,0,0,0,1-1A.94.94,0,0,0,15,8ZM9,26H7a1,1,0,0,0,0,2H9a1,1,0,0,0,0-2ZM31,10h2a.94.94,0,0,0,1-1,.94.94,0,0,0-1-1H31a.94.94,0,0,0-1,1A.94.94,0,0,0,31,10Zm9,2V4a4,4,0,0,0-4-4H4A4,4,0,0,0,0,4V28a4,4,0,0,0,4,4H36a4,4,0,0,0,4-4V24a4,4,0,0,0,4-4V16A4,4,0,0,0,40,12ZM2,4A2,2,0,0,1,4,2H36a2,2,0,0,1,2,2v.6A4.66,4.66,0,0,0,36,4H4a3.61,3.61,0,0,0-2,.6ZM38,28a2,2,0,0,1-2,2H4a2,2,0,0,1-2-2V8A2,2,0,0,1,4,6H36a2,2,0,0,1,2,2v4H34a4,4,0,0,0-4,4v4a4,4,0,0,0,4,4h4Zm4-8a2,2,0,0,1-2,2H34a2,2,0,0,1-2-2V16a2,2,0,0,1,2-2h6a2,2,0,0,1,2,2ZM21,26H19a1,1,0,0,0,0,2h2a1,1,0,0,0,0-2ZM27,8H25a.94.94,0,0,0-1,1,.94.94,0,0,0,1,1h2a.94.94,0,0,0,1-1A.94.94,0,0,0,27,8Zm8,9a1,1,0,1,0,1,1A.94.94,0,0,0,35,17Zm-2,9H31a1,1,0,0,0,0,2h2a1,1,0,0,0,0-2ZM21,8H19a.94.94,0,0,0-1,1,.94.94,0,0,0,1,1h2a.94.94,0,0,0,1-1A.94.94,0,0,0,21,8Zm6,18H25a1,1,0,0,0,0,2h2a1,1,0,0,0,0-2Z"/></g></svg>