<?xml version="1.0" encoding="utf-8"?>
<!-- Generator: Adobe Illustrator 21.0.2, SVG Export Plug-In . SVG Version: 6.00 Build 0)  -->
<svg version="1.1" id="Layer_1" xmlns="http://www.w3.org/2000/svg"  x="0px" y="0px"
	 viewBox="0 0 45 34.5" style="enable-background:new 0 0 45 34.5;" xml:space="preserve">
<style type="text/css">
	.st0{fill:#995716;}
	.st1{fill:#FFE650;}
</style>
<title>generalAsset 11</title>
<g>
	<g>
		<path class="st0" d="M26,27.5h12c0.6,0,1-0.4,1-1c0-0.6-0.4-1-1-1H26c-0.6,0-1,0.4-1,1C25,27.1,25.4,27.5,26,27.5z"/>
		<path class="st0" d="M26,23.5h8c0.6,0,1-0.4,1-1c0-0.6-0.4-1-1-1h-8c-0.6,0-1,0.4-1,1C25,23.1,25.4,23.5,26,23.5z"/>
		<path class="st0" d="M26,15.5h8c0.6,0,1-0.4,1-1c0-0.6-0.4-1-1-1h-8c-0.6,0-1,0.4-1,1C25,15.1,25.4,15.5,26,15.5z"/>
		<path class="st0" d="M26,19.5h12c0.6,0,1-0.4,1-1c0-0.6-0.4-1-1-1H26c-0.6,0-1,0.4-1,1C25,19.1,25.4,19.5,26,19.5z"/>
		<path class="st0" d="M8,15.5h12c0.6,0,1-0.4,1-1c0-0.6-0.4-1-1-1H8c-0.6,0-1,0.4-1,1C7,15.1,7.4,15.5,8,15.5z"/>
		<path class="st0" d="M43,6.5H26.3c0.3-0.5,0.5-1.1,0.5-1.8c0-2-1.7-3.7-3.7-3.7s-3.7,1.7-3.7,3.7c0,0.7,0.2,1.3,0.5,1.8H3
			c-1.1,0-2,0.9-2,2v24c0,1.1,0.9,2,2,2h40c1.1,0,2-0.9,2-2v-24C45,7.4,44.1,6.5,43,6.5z M23,3c0.9,0,1.7,0.8,1.7,1.7S24,6.4,23,6.4
			s-1.7-0.8-1.7-1.7S22.1,3,23,3z M43,32.5H3v-24h40V32.5z"/>
		<path class="st0" d="M8,27.5h8c0.6,0,1-0.4,1-1c0-0.6-0.4-1-1-1H8c-0.6,0-1,0.4-1,1C7,27.1,7.4,27.5,8,27.5z"/>
		<path class="st0" d="M8,23.5h12c0.6,0,1-0.4,1-1c0-0.6-0.4-1-1-1H8c-0.6,0-1,0.4-1,1C7,23.1,7.4,23.5,8,23.5z"/>
		<path class="st0" d="M8,19.5h8c0.6,0,1-0.4,1-1c0-0.6-0.4-1-1-1H8c-0.6,0-1,0.4-1,1C7,19.1,7.4,19.5,8,19.5z"/>
	</g>
	<g>
		<path class="st1" d="M25,26.5h12c0.6,0,1-0.4,1-1c0-0.6-0.4-1-1-1H25c-0.6,0-1,0.4-1,1C24,26.1,24.4,26.5,25,26.5z"/>
		<path class="st1" d="M25,22.5h8c0.6,0,1-0.4,1-1c0-0.6-0.4-1-1-1h-8c-0.6,0-1,0.4-1,1C24,22.1,24.4,22.5,25,22.5z"/>
		<path class="st1" d="M25,14.5h8c0.6,0,1-0.4,1-1c0-0.6-0.4-1-1-1h-8c-0.6,0-1,0.4-1,1C24,14.1,24.4,14.5,25,14.5z"/>
		<path class="st1" d="M25,18.5h12c0.6,0,1-0.4,1-1c0-0.6-0.4-1-1-1H25c-0.6,0-1,0.4-1,1C24,18.1,24.4,18.5,25,18.5z"/>
		<path class="st1" d="M7,14.5h12c0.6,0,1-0.4,1-1c0-0.6-0.4-1-1-1H7c-0.6,0-1,0.4-1,1C6,14.1,6.4,14.5,7,14.5z"/>
		<path class="st1" d="M42,5.5H25.3c0.3-0.5,0.5-1.1,0.5-1.8c0-2-1.7-3.7-3.7-3.7s-3.7,1.7-3.7,3.7c0,0.7,0.2,1.3,0.5,1.8H2
			c-1.1,0-2,0.9-2,2v24c0,1.1,0.9,2,2,2h40c1.1,0,2-0.9,2-2v-24C44,6.4,43.1,5.5,42,5.5z M22,2c0.9,0,1.7,0.8,1.7,1.7S23,5.4,22,5.4
			s-1.7-0.8-1.7-1.7S21.1,2,22,2z M42,31.5H2v-24h40V31.5z"/>
		<path class="st1" d="M7,26.5h8c0.6,0,1-0.4,1-1c0-0.6-0.4-1-1-1H7c-0.6,0-1,0.4-1,1C6,26.1,6.4,26.5,7,26.5z"/>
		<path class="st1" d="M7,22.5h12c0.6,0,1-0.4,1-1c0-0.6-0.4-1-1-1H7c-0.6,0-1,0.4-1,1C6,22.1,6.4,22.5,7,22.5z"/>
		<path class="st1" d="M7,18.5h8c0.6,0,1-0.4,1-1c0-0.6-0.4-1-1-1H7c-0.6,0-1,0.4-1,1C6,18.1,6.4,18.5,7,18.5z"/>
	</g>
</g>
</svg>
