<svg xmlns="http://www.w3.org/2000/svg" viewBox="0 0 23.09 43.75"><defs></defs><title>Asset 3</title><g id="Layer_2" data-name="Layer 2"><g id="General"><path class="cls-1" d="M7.58,31.25V29.69a13,13,0,0,1,1-5.57A14.9,14.9,0,0,1,12.5,19.5a26.16,26.16,0,0,0,5-5,7.61,7.61,0,0,0,1-4.05,5.64,5.64,0,0,0-1.9-4.56,8.21,8.21,0,0,0-5.45-1.61,18.55,18.55,0,0,0-4.46.54,24.22,24.22,0,0,0-5,2L0,2.86A24.31,24.31,0,0,1,11.43,0Q17,0,20,2.72a9.71,9.71,0,0,1,3.07,7.67,11.2,11.2,0,0,1-.56,3.72,10.92,10.92,0,0,1-1.66,3,39.92,39.92,0,0,1-4.75,4.62,17.83,17.83,0,0,0-3.86,4.14,8.86,8.86,0,0,0-.94,4.4v1ZM6.16,39.84q0-3.94,3.47-3.94a3.31,3.31,0,0,1,2.59,1,4.23,4.23,0,0,1,.91,2.92,4.15,4.15,0,0,1-.93,2.88,3.29,3.29,0,0,1-2.58,1,3.52,3.52,0,0,1-2.49-.91A3.92,3.92,0,0,1,6.16,39.84Z"/></g></g></svg>
