<?xml version="1.0" encoding="utf-8"?>
<!-- Generator: Adobe Illustrator 21.0.2, SVG Export Plug-In . SVG Version: 6.00 Build 0)  -->
<svg version="1.1" id="Capa_1" xmlns="http://www.w3.org/2000/svg"  x="0px" y="0px"
	 viewBox="0 0 512 512" style="enable-background:new 0 0 512 512;" xml:space="preserve">
<style type="text/css">
	.st0{fill:#BEBEBE;}
	.st1{fill:#F2F2F2;}
	.st2{fill:#D2D2D2;}
	.st3{fill:#535353;}
	.st4{fill:#B2B2B2;}
	.st5{fill:#989898;}
</style>
<path class="st0" d="M317.9,319.7l-2.1,89.6L256,449.9l-58.7-39.5l-3.2-90.7c0,0,19.2-18.1,13.9-36.3h93.9
	C298.7,301.6,317.9,319.7,317.9,319.7z"/>
<path class="st1" d="M446.9,472.3v-30.9c0-29.9-16-57.6-41.6-72.5l-43.7-24.5l-43.7-24.5l0,0l-38.4,92.8l-14.9-62.9l10.7-11.7h-38.4
	l10.7,11.7l-14.9,62.9l-37.3-92.8l-43.7,24.5l-43.7,24.5c-25.6,14.9-41.6,42.7-41.6,72.5v30.9L446.9,472.3L446.9,472.3z"/>
<g>
	
		<ellipse transform="matrix(0.9244 -0.3814 0.3814 0.9244 -64.9368 83.8846)" class="st0" cx="179.2" cy="205.8" rx="14.9" ry="21.3"/>
	
		<ellipse transform="matrix(0.3814 -0.9244 0.9244 0.3814 15.1107 434.1672)" class="st0" cx="332" cy="205.8" rx="21.3" ry="14.9"/>
</g>
<path class="st2" d="M341.3,170.4c0,4.3,0,9.6-1.1,14.9l0,0c-6.4,50.1-41.6,131.2-84.3,131.2s-77.9-81.1-84.3-132.3
	c-1.1-4.3-1.1-9.6-1.1-13.9c0-46.9,38.4-85.3,85.3-85.3S341.3,123.5,341.3,170.4z"/>
<path class="st3" d="M173.9,200.3c-2.1-11.7-1.1-27.7,6.4-36.3c0,0-6.4-54.4,33.1-51.2c0,0,32,10.7,91.7,0c0,0,24.5-1.1,20.3,24.5
	c0,0-6.4,23.5,6.4,28.8l5.3,33.1l5.3-24.5c9.6-44.8-1.1-89.6-42.7-109.9c-1.1,0-1.1,0-1.1,0c5.3-7.5,16-4.3,16-4.3
	c-70.4-44.8-117.3-3.2-117.3-3.2c-50.1,45.9-34.1,99.2-34.1,99.2C157.9,175.7,173.9,200.3,173.9,200.3z"/>
<g>
	<path class="st4" d="M99.2,356l43.7-24.5l39.5-22.4V308l0,0c4.3-5.3,7.5-11.7,10.7-18.1c-9.6-14.9-18.1-32-24.5-51.2
		c-7.5-4.3-13.9-11.7-17.1-20.3c-4.3-9.6-4.3-20.3-1.1-29.9c-4.3-11.7-6.4-22.4-4.3-32c-1.1-6.4-3.2-20.3-1.1-36.3
		c-27.7-1.1-43.7,13.9-43.7,13.9c-38.4,35.2-26.7,75.7-26.7,75.7c-2.1,8.5,1.1,18.1,5.3,25.6c-3.2,3.2-4.3,10.7-1.1,17.1
		c2.1,6.4,7.5,9.6,11.7,10.7c5.3,16,12.8,32,21.3,44.8l0,0c3.2,13.9-10.7,27.7-10.7,27.7l0,0l-34.1,19.2L32,373.1
		c-20.3,11.7-32,32-32,55.5v10.7h49.1C50.1,405.1,69.3,373.1,99.2,356z"/>
	<path class="st4" d="M480,373.1l-33.1-19.2l-34.1-19.2l0,0l0,0c0,0-13.9-13.9-10.7-27.7l0,0c8.5-12.8,16-28.8,21.3-44.8
		c4.3-1.1,9.6-5.3,11.7-10.7c3.2-8.5,1.1-17.1-4.3-19.2l2.1-8.5c7.5-34.1-1.1-69.3-32-84.3c-1.1-1.1-2.1-1.1-2.1-1.1
		c4.3-5.3,11.7-3.2,11.7-3.2c-19.2-12.8-36.3-16-51.2-16c4.3,18.1,3.2,38.4-1.1,59.7v2.1c6.4,9.6,8.5,23.5,2.1,36.3
		c-3.2,8.5-9.6,16-17.1,20.3c-6.4,19.2-14.9,36.3-24.5,51.2c3.2,6.4,6.4,12.8,10.7,18.1l0,0v1.1l82.1,46.9
		c30.9,17.1,49.1,49.1,50.1,84.3H512v-10.7C512,406.1,499.2,384.8,480,373.1z"/>
</g>
<polygon class="st5" points="387.2,416.8 366.9,416.8 366.9,396.5 353.1,396.5 353.1,416.8 332.8,416.8 332.8,430.7 353.1,430.7 
	353.1,450.9 366.9,450.9 366.9,430.7 387.2,430.7 "/>
</svg>
