<svg xmlns="http://www.w3.org/2000/svg" viewBox="0 0 45 37"><defs><style>.cls-1{isolation:isolate;}.cls-2{mix-blend-mode:multiply;}.cls-3{fill:#00467f;}.cls-4{fill:#fff;}</style></defs><title>paymentsM</title><g class="cls-1"><g id="Layer_1" data-name="Layer 1"><g id="Layer_2" data-name="Layer 2"><g class="cls-2"><path class="cls-3" d="M8,27.06H20a1,1,0,0,0,0-2H8a1,1,0,0,0,0,2Zm18,4h4a1,1,0,0,0,1-1v-4a1,1,0,0,0-1-1H26a1,1,0,0,0-1,1v4A1,1,0,0,0,26,31.06Zm17-30H11a2,2,0,0,0-2,2v3a1,1,0,0,0,2,0v-3H43v24H40a1,1,0,0,0,0,2h3a2,2,0,0,0,2-2v-24A2,2,0,0,0,43,1.06Zm-8,8H3a2,2,0,0,0-2,2v24a2,2,0,0,0,2,2H35a2,2,0,0,0,2-2v-24A2,2,0,0,0,35,9.06Zm0,26H3v-14H35Zm0-20H3v-4H35Zm-27,16h8a1,1,0,0,0,0-2H8a1,1,0,0,0,0,2Z"/></g><path class="cls-4" d="M7,26.06H19a1,1,0,0,0,0-2H7a1,1,0,0,0,0,2Zm18,4h4a1,1,0,0,0,1-1v-4a1,1,0,0,0-1-1H25a1,1,0,0,0-1,1v4A1,1,0,0,0,25,30.06Zm17-30H10a2,2,0,0,0-2,2v3a1,1,0,0,0,2,0v-3H42v24H39a1,1,0,0,0,0,2h3a2,2,0,0,0,2-2v-24A2,2,0,0,0,42,.06Zm-8,8H2a2,2,0,0,0-2,2v24a2,2,0,0,0,2,2H34a2,2,0,0,0,2-2v-24A2,2,0,0,0,34,8.06Zm0,26H2v-14H34Zm0-20H2v-4H34Zm-27,16h8a1,1,0,0,0,0-2H7a1,1,0,0,0,0,2Z"/></g></g></g></svg>