<?xml version="1.0" encoding="utf-8"?><svg xmlns="http://www.w3.org/2000/svg" xmlns:xlink="http://www.w3.org/1999/xlink"><symbol id="Logout" viewBox="0 0 32 44" xmlns="http://www.w3.org/2000/svg"><style/><g id="aaShare" class="aast0"><path class="aast1" d="M8 10c.3 0 .5-.1.7-.3L15 3.4V35c0 .6.4 1 1 1s1-.4 1-1V3.4l6.3 6.3c.2.2.4.3.7.3.6 0 1-.4 1-1 0-.3-.1-.5-.3-.7l-8-8c-.2-.2-.4-.3-.7-.3s-.5.1-.7.3l-8 8c-.2.2-.3.4-.3.7 0 .6.4 1 1 1zm23 4H20c-.6 0-1 .4-1 1s.4 1 1 1h10v26H2V16h10c.6 0 1-.4 1-1s-.4-1-1-1H1c-.6 0-1 .4-1 1v28c0 .6.4 1 1 1h30c.6 0 1-.4 1-1V15c0-.6-.4-1-1-1z"/></g></symbol><symbol viewBox="0 0 32 44" id="Password" xmlns="http://www.w3.org/2000/svg"><title>PasswordAsset 2</title><g data-name="Layer 2"><path class="abcls-1" d="M16 26a4 4 0 0 0-3 6.66 3 3 0 1 0 5.93 0A4 4 0 0 0 16 26zm1 5.72V33a1 1 0 0 1-2 0v-1.28a2 2 0 1 1 2 0zM28 18v-6a12 12 0 0 0-24 0v6a4 4 0 0 0-4 4v18a4 4 0 0 0 4 4h24a4 4 0 0 0 4-4V22a4 4 0 0 0-4-4zM6 12a10 10 0 0 1 20 0v6H6zm24 28a2 2 0 0 1-2 2H4a2 2 0 0 1-2-2V22a2 2 0 0 1 2-2h24a2 2 0 0 1 2 2z" data-name="Lock@2x.png"/></g></symbol><symbol id="bar1" viewBox="0 0 46 38" xmlns="http://www.w3.org/2000/svg"><defs><style>.accls-1{fill:#00467f}.accls-2{fill:#fff}</style></defs><title>posting</title><g id="acBriefcase_2x.png" data-name="Briefcase@2x.png"><path class="accls-1" d="M44 6H32a4 4 0 0 0-4-4h-8a4 4 0 0 0-4 4H4a2 2 0 0 0-2 2v10a2 2 0 0 0 2 2v16a2 2 0 0 0 2 2h36a2 2 0 0 0 2-2V20a2 2 0 0 0 2-2V8a2 2 0 0 0-2-2zM20 4h8a2 2 0 0 1 2 2H18a2 2 0 0 1 2-2zm22 32H6V20h4v2a2 2 0 0 0 2 2h4a2 2 0 0 0 2-2v-2h12v2a2 2 0 0 0 2 2h4a2 2 0 0 0 2-2v-2h4zM12 22v-6h4v6zm20 0v-6h4v6zm12-4h-6v-2a2 2 0 0 0-2-2h-4a2 2 0 0 0-2 2v2H18v-2a2 2 0 0 0-2-2h-4a2 2 0 0 0-2 2v2H4V8h40z"/><path class="accls-2" d="M42.5 4.56h-12a4 4 0 0 0-4-4h-8a4 4 0 0 0-4 4h-12a2 2 0 0 0-2 2v10a2 2 0 0 0 2 2v16a2 2 0 0 0 2 2h36a2 2 0 0 0 2-2v-16a2 2 0 0 0 2-2v-10a2 2 0 0 0-2-2zm-24-2h8a2 2 0 0 1 2 2h-12a2 2 0 0 1 2-2zm22 32h-36v-16h4v2a2 2 0 0 0 2 2h4a2 2 0 0 0 2-2v-2h12v2a2 2 0 0 0 2 2h4a2 2 0 0 0 2-2v-2h4zm-30-14v-6h4v6zm20 0v-6h4v6zm12-4h-6v-2a2 2 0 0 0-2-2h-4a2 2 0 0 0-2 2v2h-12v-2a2 2 0 0 0-2-2h-4a2 2 0 0 0-2 2v2h-6v-10h40z"/></g></symbol><symbol id="bar1H" viewBox="0 0 46 38" xmlns="http://www.w3.org/2000/svg"><defs><style>.adcls-1{fill:#995716}.adcls-2{fill:#ffe650}</style></defs><title>hover postin</title><g id="adBriefcase_2x.png" data-name="Briefcase@2x.png"><path class="adcls-1" d="M44 6H32a4 4 0 0 0-4-4h-8a4 4 0 0 0-4 4H4a2 2 0 0 0-2 2v10a2 2 0 0 0 2 2v16a2 2 0 0 0 2 2h36a2 2 0 0 0 2-2V20a2 2 0 0 0 2-2V8a2 2 0 0 0-2-2zM20 4h8a2 2 0 0 1 2 2H18a2 2 0 0 1 2-2zm22 32H6V20h4v2a2 2 0 0 0 2 2h4a2 2 0 0 0 2-2v-2h12v2a2 2 0 0 0 2 2h4a2 2 0 0 0 2-2v-2h4zM12 22v-6h4v6zm20 0v-6h4v6zm12-4h-6v-2a2 2 0 0 0-2-2h-4a2 2 0 0 0-2 2v2H18v-2a2 2 0 0 0-2-2h-4a2 2 0 0 0-2 2v2H4V8h40z"/><path class="adcls-2" d="M42.5 4.56h-12a4 4 0 0 0-4-4h-8a4 4 0 0 0-4 4h-12a2 2 0 0 0-2 2v10a2 2 0 0 0 2 2v16a2 2 0 0 0 2 2h36a2 2 0 0 0 2-2v-16a2 2 0 0 0 2-2v-10a2 2 0 0 0-2-2zm-24-2h8a2 2 0 0 1 2 2h-12a2 2 0 0 1 2-2zm22 32h-36v-16h4v2a2 2 0 0 0 2 2h4a2 2 0 0 0 2-2v-2h12v2a2 2 0 0 0 2 2h4a2 2 0 0 0 2-2v-2h4zm-30-14v-6h4v6zm20 0v-6h4v6zm12-4h-6v-2a2 2 0 0 0-2-2h-4a2 2 0 0 0-2 2v2h-12v-2a2 2 0 0 0-2-2h-4a2 2 0 0 0-2 2v2h-6v-10h40z"/></g></symbol><symbol id="bar2" viewBox="0 0 45 45" xmlns="http://www.w3.org/2000/svg"><defs><style>.aecls-1{fill:#00467f}.aecls-2{fill:#fff}</style></defs><title>current</title><g id="aeCalendar_1_2x.png" data-name="Calendar 1@2x.png"><path class="aecls-1" d="M20.5 35.7a2.38 2.38 0 0 1-1.1.6 5.07 5.07 0 0 1-1.3.2 2.72 2.72 0 0 1-2.4-1 3.66 3.66 0 0 1-.9-2.5h-1.9a7.32 7.32 0 0 0 .3 2.2 4.35 4.35 0 0 0 1 1.6 4.78 4.78 0 0 0 1.7 1 7.32 7.32 0 0 0 2.2.3 7.61 7.61 0 0 0 2.1-.3 4.61 4.61 0 0 0 1.7-.9 4.43 4.43 0 0 0 1.2-1.5 4.64 4.64 0 0 0 .4-2.1 4.09 4.09 0 0 0-.7-2.5 3.45 3.45 0 0 0-2.1-1.4 3.74 3.74 0 0 0 1.5-1.3 3.29 3.29 0 0 0 .6-1.9 3.81 3.81 0 0 0-.4-1.9 3.25 3.25 0 0 0-1-1.3 5.3 5.3 0 0 0-1.5-.8 5.82 5.82 0 0 0-1.9-.3 4.64 4.64 0 0 0-2.1.4 4.18 4.18 0 0 0-1.5 1.1 5.07 5.07 0 0 0-.9 1.6 11.21 11.21 0 0 0-.4 2.1H15a5.07 5.07 0 0 1 .2-1.3 3.7 3.7 0 0 1 .5-1.1 2.36 2.36 0 0 1 .9-.8 2.77 2.77 0 0 1 1.3-.3 3.17 3.17 0 0 1 2 .6 2.41 2.41 0 0 1 .8 1.9 3.59 3.59 0 0 1-.2 1.1 5.55 5.55 0 0 1-.6.8 2.62 2.62 0 0 1-.9.5 4.25 4.25 0 0 1-1.1.2h-.8v1.6c.4 0 .7-.1 1.1-.1a5.07 5.07 0 0 1 1.3.2 1.7 1.7 0 0 1 1 .6 3.59 3.59 0 0 1 .7 1 3 3 0 0 1 0 2.6 1.77 1.77 0 0 1-.7 1.1zM30 38h1.9V21.9h-1.4a3.39 3.39 0 0 1-.6 1.5 2.84 2.84 0 0 1-1 .9 5.78 5.78 0 0 1-1.4.5 7.57 7.57 0 0 1-1.5.1v1.5h4zM41 5h-4V2a1 1 0 0 0-2 0v3H11V2a.94.94 0 0 0-1-1 .94.94 0 0 0-1 1v3H5a4 4 0 0 0-4 4v32a4 4 0 0 0 4 4h36a4 4 0 0 0 4-4V9a4 4 0 0 0-4-4zm2 36a2 2 0 0 1-2 2H5a2 2 0 0 1-2-2V17h40zm0-26H3V9a2 2 0 0 1 2-2h4v3a.94.94 0 0 0 1 1 .94.94 0 0 0 1-1V7h24v3a1 1 0 0 0 2 0V7h4a2 2 0 0 1 2 2z"/><path class="aecls-2" d="M19.5 34.7a2.38 2.38 0 0 1-1.1.6 5.07 5.07 0 0 1-1.3.2 2.72 2.72 0 0 1-2.4-1 3.66 3.66 0 0 1-.9-2.5h-1.9a7.32 7.32 0 0 0 .3 2.2 4.35 4.35 0 0 0 1 1.6 4.78 4.78 0 0 0 1.7 1 7.32 7.32 0 0 0 2.2.3 7.61 7.61 0 0 0 2.1-.3 4.61 4.61 0 0 0 1.7-.9 4.43 4.43 0 0 0 1.2-1.5 4.64 4.64 0 0 0 .4-2.1 4.09 4.09 0 0 0-.7-2.5 3.45 3.45 0 0 0-2.1-1.4 3.74 3.74 0 0 0 1.5-1.3 3.29 3.29 0 0 0 .6-1.9 3.81 3.81 0 0 0-.4-1.9 3.25 3.25 0 0 0-1-1.3 5.3 5.3 0 0 0-1.5-.8 5.82 5.82 0 0 0-1.9-.3 4.64 4.64 0 0 0-2.1.4 4.18 4.18 0 0 0-1.5 1.1 5.07 5.07 0 0 0-.9 1.6 11.21 11.21 0 0 0-.4 2.1H14a5.07 5.07 0 0 1 .2-1.3 3.7 3.7 0 0 1 .5-1.1 2.36 2.36 0 0 1 .9-.8 2.77 2.77 0 0 1 1.3-.3 3.17 3.17 0 0 1 2 .6 2.41 2.41 0 0 1 .8 1.9 3.59 3.59 0 0 1-.2 1.1 5.55 5.55 0 0 1-.6.8 2.62 2.62 0 0 1-.9.5 4.25 4.25 0 0 1-1.1.2h-.8v1.6c.4 0 .7-.1 1.1-.1a5.07 5.07 0 0 1 1.3.2 1.7 1.7 0 0 1 1 .6 3.59 3.59 0 0 1 .7 1 3 3 0 0 1 0 2.6 1.77 1.77 0 0 1-.7 1.1zM29 37h1.9V20.9h-1.4a3.39 3.39 0 0 1-.6 1.5 2.84 2.84 0 0 1-1 .9 5.78 5.78 0 0 1-1.4.5 7.57 7.57 0 0 1-1.5.1v1.5h4zM40 4h-4V1a1 1 0 0 0-2 0v3H10V1a.94.94 0 0 0-1-1 .94.94 0 0 0-1 1v3H4a4 4 0 0 0-4 4v32a4 4 0 0 0 4 4h36a4 4 0 0 0 4-4V8a4 4 0 0 0-4-4zm2 36a2 2 0 0 1-2 2H4a2 2 0 0 1-2-2V16h40zm0-26H2V8a2 2 0 0 1 2-2h4v3a.94.94 0 0 0 1 1 .94.94 0 0 0 1-1V6h24v3a1 1 0 0 0 2 0V6h4a2 2 0 0 1 2 2z"/></g></symbol><symbol id="bar2H" viewBox="0 0 45 45" xmlns="http://www.w3.org/2000/svg"><defs><style>.afcls-1{fill:#995716}.afcls-2{fill:#ffe650}</style></defs><title>Hover_current</title><g id="afCalendar_1_2x.png" data-name="Calendar 1@2x.png"><path class="afcls-1" d="M20.5 35.7a2.38 2.38 0 0 1-1.1.6 5.07 5.07 0 0 1-1.3.2 2.72 2.72 0 0 1-2.4-1 3.66 3.66 0 0 1-.9-2.5h-1.9a7.32 7.32 0 0 0 .3 2.2 4.35 4.35 0 0 0 1 1.6 4.78 4.78 0 0 0 1.7 1 7.32 7.32 0 0 0 2.2.3 7.61 7.61 0 0 0 2.1-.3 4.61 4.61 0 0 0 1.7-.9 4.43 4.43 0 0 0 1.2-1.5 4.64 4.64 0 0 0 .4-2.1 4.09 4.09 0 0 0-.7-2.5 3.45 3.45 0 0 0-2.1-1.4 3.74 3.74 0 0 0 1.5-1.3 3.29 3.29 0 0 0 .6-1.9 3.81 3.81 0 0 0-.4-1.9 3.25 3.25 0 0 0-1-1.3 5.3 5.3 0 0 0-1.5-.8 5.82 5.82 0 0 0-1.9-.3 4.64 4.64 0 0 0-2.1.4 4.18 4.18 0 0 0-1.5 1.1 5.07 5.07 0 0 0-.9 1.6 11.21 11.21 0 0 0-.4 2.1H15a5.07 5.07 0 0 1 .2-1.3 3.7 3.7 0 0 1 .5-1.1 2.36 2.36 0 0 1 .9-.8 2.77 2.77 0 0 1 1.3-.3 3.17 3.17 0 0 1 2 .6 2.41 2.41 0 0 1 .8 1.9 3.59 3.59 0 0 1-.2 1.1 5.55 5.55 0 0 1-.6.8 2.62 2.62 0 0 1-.9.5 4.25 4.25 0 0 1-1.1.2h-.8v1.6c.4 0 .7-.1 1.1-.1a5.07 5.07 0 0 1 1.3.2 1.7 1.7 0 0 1 1 .6 3.59 3.59 0 0 1 .7 1 3 3 0 0 1 0 2.6 1.77 1.77 0 0 1-.7 1.1zM30 38h1.9V21.9h-1.4a3.39 3.39 0 0 1-.6 1.5 2.84 2.84 0 0 1-1 .9 5.78 5.78 0 0 1-1.4.5 7.57 7.57 0 0 1-1.5.1v1.5h4zM41 5h-4V2a1 1 0 0 0-2 0v3H11V2a.94.94 0 0 0-1-1 .94.94 0 0 0-1 1v3H5a4 4 0 0 0-4 4v32a4 4 0 0 0 4 4h36a4 4 0 0 0 4-4V9a4 4 0 0 0-4-4zm2 36a2 2 0 0 1-2 2H5a2 2 0 0 1-2-2V17h40zm0-26H3V9a2 2 0 0 1 2-2h4v3a.94.94 0 0 0 1 1 .94.94 0 0 0 1-1V7h24v3a1 1 0 0 0 2 0V7h4a2 2 0 0 1 2 2z"/><path class="afcls-2" d="M19.5 34.7a2.38 2.38 0 0 1-1.1.6 5.07 5.07 0 0 1-1.3.2 2.72 2.72 0 0 1-2.4-1 3.66 3.66 0 0 1-.9-2.5h-1.9a7.32 7.32 0 0 0 .3 2.2 4.35 4.35 0 0 0 1 1.6 4.78 4.78 0 0 0 1.7 1 7.32 7.32 0 0 0 2.2.3 7.61 7.61 0 0 0 2.1-.3 4.61 4.61 0 0 0 1.7-.9 4.43 4.43 0 0 0 1.2-1.5 4.64 4.64 0 0 0 .4-2.1 4.09 4.09 0 0 0-.7-2.5 3.45 3.45 0 0 0-2.1-1.4 3.74 3.74 0 0 0 1.5-1.3 3.29 3.29 0 0 0 .6-1.9 3.81 3.81 0 0 0-.4-1.9 3.25 3.25 0 0 0-1-1.3 5.3 5.3 0 0 0-1.5-.8 5.82 5.82 0 0 0-1.9-.3 4.64 4.64 0 0 0-2.1.4 4.18 4.18 0 0 0-1.5 1.1 5.07 5.07 0 0 0-.9 1.6 11.21 11.21 0 0 0-.4 2.1H14a5.07 5.07 0 0 1 .2-1.3 3.7 3.7 0 0 1 .5-1.1 2.36 2.36 0 0 1 .9-.8 2.77 2.77 0 0 1 1.3-.3 3.17 3.17 0 0 1 2 .6 2.41 2.41 0 0 1 .8 1.9 3.59 3.59 0 0 1-.2 1.1 5.55 5.55 0 0 1-.6.8 2.62 2.62 0 0 1-.9.5 4.25 4.25 0 0 1-1.1.2h-.8v1.6c.4 0 .7-.1 1.1-.1a5.07 5.07 0 0 1 1.3.2 1.7 1.7 0 0 1 1 .6 3.59 3.59 0 0 1 .7 1 3 3 0 0 1 0 2.6 1.77 1.77 0 0 1-.7 1.1zM29 37h1.9V20.9h-1.4a3.39 3.39 0 0 1-.6 1.5 2.84 2.84 0 0 1-1 .9 5.78 5.78 0 0 1-1.4.5 7.57 7.57 0 0 1-1.5.1v1.5h4zM40 4h-4V1a1 1 0 0 0-2 0v3H10V1a.94.94 0 0 0-1-1 .94.94 0 0 0-1 1v3H4a4 4 0 0 0-4 4v32a4 4 0 0 0 4 4h36a4 4 0 0 0 4-4V8a4 4 0 0 0-4-4zm2 36a2 2 0 0 1-2 2H4a2 2 0 0 1-2-2V16h40zm0-26H2V8a2 2 0 0 1 2-2h4v3a.94.94 0 0 0 1 1 .94.94 0 0 0 1-1V6h24v3a1 1 0 0 0 2 0V6h4a2 2 0 0 1 2 2z"/></g></symbol><symbol id="bar3" viewBox="0 0 45 45.25" xmlns="http://www.w3.org/2000/svg"><defs><style>.agcls-1{fill:#00467f}.agcls-2{fill:#fff}</style></defs><title>hiring</title><g id="agBox_with_Papers_2x.png" data-name="Box with Papers@2x.png"><path class="agcls-1" d="M17 31.22h12a2 2 0 0 0 2-2v-2a2 2 0 0 0-2-2H17a2 2 0 0 0-2 2v2a2 2 0 0 0 2 2zm0-4h12v2H17zm26-14h-4v-8a2 2 0 0 0-2-2h-8l-2-2H9a2 2 0 0 0-2 2v10H3a2 2 0 0 0-2 2v4a2 2 0 0 0 2 2h2v22a2 2 0 0 0 2 2h32a2 2 0 0 0 2-2v-22h2a2 2 0 0 0 2-2v-4a1.94 1.94 0 0 0-2-1.99zm-6-8v8h-4v-6l-2-2zm-10-1l3 3h-3zm-18-1h16v5a.94.94 0 0 0 1 1h5v4H9zm30 40H7v-22h32zm4-24H3v-4h40z"/><path class="agcls-2" d="M16 30.22h12a2 2 0 0 0 2-2v-2a2 2 0 0 0-2-2H16a2 2 0 0 0-2 2v2a2 2 0 0 0 2 2zm0-4h12v2H16zm26-14h-4v-8a2 2 0 0 0-2-2h-8l-2-2H8a2 2 0 0 0-2 2v10H2a2 2 0 0 0-2 2v4a2 2 0 0 0 2 2h2v22a2 2 0 0 0 2 2h32a2 2 0 0 0 2-2v-22h2a2 2 0 0 0 2-2v-4a1.94 1.94 0 0 0-2-1.99zm-6-8v8h-4v-6l-2-2zm-10-1l3 3h-3zm-18-1h16v5a.94.94 0 0 0 1 1h5v4H8zm30 40H6v-22h32zm4-24H2v-4h40z"/></g></symbol><symbol id="bar3H" viewBox="0 0 45 45.25" xmlns="http://www.w3.org/2000/svg"><defs><style>.ahcls-1{fill:#995716}.ahcls-2{fill:#ffe650}</style></defs><title>Hover-hiring</title><g id="ahBox_with_Papers_2x.png" data-name="Box with Papers@2x.png"><path class="ahcls-1" d="M17 31.22h12a2 2 0 0 0 2-2v-2a2 2 0 0 0-2-2H17a2 2 0 0 0-2 2v2a2 2 0 0 0 2 2zm0-4h12v2H17zm26-14h-4v-8a2 2 0 0 0-2-2h-8l-2-2H9a2 2 0 0 0-2 2v10H3a2 2 0 0 0-2 2v4a2 2 0 0 0 2 2h2v22a2 2 0 0 0 2 2h32a2 2 0 0 0 2-2v-22h2a2 2 0 0 0 2-2v-4a1.94 1.94 0 0 0-2-1.99zm-6-8v8h-4v-6l-2-2zm-10-1l3 3h-3zm-18-1h16v5a.94.94 0 0 0 1 1h5v4H9zm30 40H7v-22h32zm4-24H3v-4h40z"/><path class="ahcls-2" d="M16 30.22h12a2 2 0 0 0 2-2v-2a2 2 0 0 0-2-2H16a2 2 0 0 0-2 2v2a2 2 0 0 0 2 2zm0-4h12v2H16zm26-14h-4v-8a2 2 0 0 0-2-2h-8l-2-2H8a2 2 0 0 0-2 2v10H2a2 2 0 0 0-2 2v4a2 2 0 0 0 2 2h2v22a2 2 0 0 0 2 2h32a2 2 0 0 0 2-2v-22h2a2 2 0 0 0 2-2v-4a1.94 1.94 0 0 0-2-1.99zm-6-8v8h-4v-6l-2-2zm-10-1l3 3h-3zm-18-1h16v5a.94.94 0 0 0 1 1h5v4H8zm30 40H6v-22h32zm4-24H2v-4h40z"/></g></symbol><symbol id="bar4" viewBox="0 0 45 33" xmlns="http://www.w3.org/2000/svg"><defs><style>.aicls-1{fill:#00467f}.aicls-2{fill:#fff}</style></defs><title>payments</title><g id="aiWallet_2" data-name="Wallet 2"><path class="aicls-1" d="M10 9H8a.94.94 0 0 0-1 1 .94.94 0 0 0 1 1h2a.94.94 0 0 0 1-1 .94.94 0 0 0-1-1zm6 18h-2a1 1 0 0 0 0 2h2a1 1 0 0 0 0-2zm0-18h-2a.94.94 0 0 0-1 1 .94.94 0 0 0 1 1h2a.94.94 0 0 0 1-1 .94.94 0 0 0-1-1zm-6 18H8a1 1 0 0 0 0 2h2a1 1 0 0 0 0-2zm22-16h2a.94.94 0 0 0 1-1 .94.94 0 0 0-1-1h-2a.94.94 0 0 0-1 1 .94.94 0 0 0 1 1zm9 2V5a4 4 0 0 0-4-4H5a4 4 0 0 0-4 4v24a4 4 0 0 0 4 4h32a4 4 0 0 0 4-4v-4a4 4 0 0 0 4-4v-4a4 4 0 0 0-4-4zM3 5a2 2 0 0 1 2-2h32a2 2 0 0 1 2 2v.6a4.66 4.66 0 0 0-2-.6H5a3.61 3.61 0 0 0-2 .6zm36 24a2 2 0 0 1-2 2H5a2 2 0 0 1-2-2V9a2 2 0 0 1 2-2h32a2 2 0 0 1 2 2v4h-4a4 4 0 0 0-4 4v4a4 4 0 0 0 4 4h4zm4-8a2 2 0 0 1-2 2h-6a2 2 0 0 1-2-2v-4a2 2 0 0 1 2-2h6a2 2 0 0 1 2 2zm-21 6h-2a1 1 0 0 0 0 2h2a1 1 0 0 0 0-2zm6-18h-2a.94.94 0 0 0-1 1 .94.94 0 0 0 1 1h2a.94.94 0 0 0 1-1 .94.94 0 0 0-1-1zm8 9a1 1 0 1 0 1 1 .94.94 0 0 0-1-1zm-2 9h-2a1 1 0 0 0 0 2h2a1 1 0 0 0 0-2zM22 9h-2a.94.94 0 0 0-1 1 .94.94 0 0 0 1 1h2a.94.94 0 0 0 1-1 .94.94 0 0 0-1-1zm6 18h-2a1 1 0 0 0 0 2h2a1 1 0 0 0 0-2z"/><path class="aicls-2" d="M9 8H7a.94.94 0 0 0-1 1 .94.94 0 0 0 1 1h2a.94.94 0 0 0 1-1 .94.94 0 0 0-1-1zm6 18h-2a1 1 0 0 0 0 2h2a1 1 0 0 0 0-2zm0-18h-2a.94.94 0 0 0-1 1 .94.94 0 0 0 1 1h2a.94.94 0 0 0 1-1 .94.94 0 0 0-1-1zM9 26H7a1 1 0 0 0 0 2h2a1 1 0 0 0 0-2zm22-16h2a.94.94 0 0 0 1-1 .94.94 0 0 0-1-1h-2a.94.94 0 0 0-1 1 .94.94 0 0 0 1 1zm9 2V4a4 4 0 0 0-4-4H4a4 4 0 0 0-4 4v24a4 4 0 0 0 4 4h32a4 4 0 0 0 4-4v-4a4 4 0 0 0 4-4v-4a4 4 0 0 0-4-4zM2 4a2 2 0 0 1 2-2h32a2 2 0 0 1 2 2v.6a4.66 4.66 0 0 0-2-.6H4a3.61 3.61 0 0 0-2 .6zm36 24a2 2 0 0 1-2 2H4a2 2 0 0 1-2-2V8a2 2 0 0 1 2-2h32a2 2 0 0 1 2 2v4h-4a4 4 0 0 0-4 4v4a4 4 0 0 0 4 4h4zm4-8a2 2 0 0 1-2 2h-6a2 2 0 0 1-2-2v-4a2 2 0 0 1 2-2h6a2 2 0 0 1 2 2zm-21 6h-2a1 1 0 0 0 0 2h2a1 1 0 0 0 0-2zm6-18h-2a.94.94 0 0 0-1 1 .94.94 0 0 0 1 1h2a.94.94 0 0 0 1-1 .94.94 0 0 0-1-1zm8 9a1 1 0 1 0 1 1 .94.94 0 0 0-1-1zm-2 9h-2a1 1 0 0 0 0 2h2a1 1 0 0 0 0-2zM21 8h-2a.94.94 0 0 0-1 1 .94.94 0 0 0 1 1h2a.94.94 0 0 0 1-1 .94.94 0 0 0-1-1zm6 18h-2a1 1 0 0 0 0 2h2a1 1 0 0 0 0-2z"/></g></symbol><symbol id="bar4H" viewBox="0 0 45 33" xmlns="http://www.w3.org/2000/svg"><defs><style>.ajcls-1{fill:#995716}.ajcls-2{fill:#ffe650}</style></defs><title>Hover_payments</title><g id="ajWallet_2" data-name="Wallet 2"><path class="ajcls-1" d="M10 9H8a.94.94 0 0 0-1 1 .94.94 0 0 0 1 1h2a.94.94 0 0 0 1-1 .94.94 0 0 0-1-1zm6 18h-2a1 1 0 0 0 0 2h2a1 1 0 0 0 0-2zm0-18h-2a.94.94 0 0 0-1 1 .94.94 0 0 0 1 1h2a.94.94 0 0 0 1-1 .94.94 0 0 0-1-1zm-6 18H8a1 1 0 0 0 0 2h2a1 1 0 0 0 0-2zm22-16h2a.94.94 0 0 0 1-1 .94.94 0 0 0-1-1h-2a.94.94 0 0 0-1 1 .94.94 0 0 0 1 1zm9 2V5a4 4 0 0 0-4-4H5a4 4 0 0 0-4 4v24a4 4 0 0 0 4 4h32a4 4 0 0 0 4-4v-4a4 4 0 0 0 4-4v-4a4 4 0 0 0-4-4zM3 5a2 2 0 0 1 2-2h32a2 2 0 0 1 2 2v.6a4.66 4.66 0 0 0-2-.6H5a3.61 3.61 0 0 0-2 .6zm36 24a2 2 0 0 1-2 2H5a2 2 0 0 1-2-2V9a2 2 0 0 1 2-2h32a2 2 0 0 1 2 2v4h-4a4 4 0 0 0-4 4v4a4 4 0 0 0 4 4h4zm4-8a2 2 0 0 1-2 2h-6a2 2 0 0 1-2-2v-4a2 2 0 0 1 2-2h6a2 2 0 0 1 2 2zm-21 6h-2a1 1 0 0 0 0 2h2a1 1 0 0 0 0-2zm6-18h-2a.94.94 0 0 0-1 1 .94.94 0 0 0 1 1h2a.94.94 0 0 0 1-1 .94.94 0 0 0-1-1zm8 9a1 1 0 1 0 1 1 .94.94 0 0 0-1-1zm-2 9h-2a1 1 0 0 0 0 2h2a1 1 0 0 0 0-2zM22 9h-2a.94.94 0 0 0-1 1 .94.94 0 0 0 1 1h2a.94.94 0 0 0 1-1 .94.94 0 0 0-1-1zm6 18h-2a1 1 0 0 0 0 2h2a1 1 0 0 0 0-2z"/><path class="ajcls-2" d="M9 8H7a.94.94 0 0 0-1 1 .94.94 0 0 0 1 1h2a.94.94 0 0 0 1-1 .94.94 0 0 0-1-1zm6 18h-2a1 1 0 0 0 0 2h2a1 1 0 0 0 0-2zm0-18h-2a.94.94 0 0 0-1 1 .94.94 0 0 0 1 1h2a.94.94 0 0 0 1-1 .94.94 0 0 0-1-1zM9 26H7a1 1 0 0 0 0 2h2a1 1 0 0 0 0-2zm22-16h2a.94.94 0 0 0 1-1 .94.94 0 0 0-1-1h-2a.94.94 0 0 0-1 1 .94.94 0 0 0 1 1zm9 2V4a4 4 0 0 0-4-4H4a4 4 0 0 0-4 4v24a4 4 0 0 0 4 4h32a4 4 0 0 0 4-4v-4a4 4 0 0 0 4-4v-4a4 4 0 0 0-4-4zM2 4a2 2 0 0 1 2-2h32a2 2 0 0 1 2 2v.6a4.66 4.66 0 0 0-2-.6H4a3.61 3.61 0 0 0-2 .6zm36 24a2 2 0 0 1-2 2H4a2 2 0 0 1-2-2V8a2 2 0 0 1 2-2h32a2 2 0 0 1 2 2v4h-4a4 4 0 0 0-4 4v4a4 4 0 0 0 4 4h4zm4-8a2 2 0 0 1-2 2h-6a2 2 0 0 1-2-2v-4a2 2 0 0 1 2-2h6a2 2 0 0 1 2 2zm-21 6h-2a1 1 0 0 0 0 2h2a1 1 0 0 0 0-2zm6-18h-2a.94.94 0 0 0-1 1 .94.94 0 0 0 1 1h2a.94.94 0 0 0 1-1 .94.94 0 0 0-1-1zm8 9a1 1 0 1 0 1 1 .94.94 0 0 0-1-1zm-2 9h-2a1 1 0 0 0 0 2h2a1 1 0 0 0 0-2zM21 8h-2a.94.94 0 0 0-1 1 .94.94 0 0 0 1 1h2a.94.94 0 0 0 1-1 .94.94 0 0 0-1-1zm6 18h-2a1 1 0 0 0 0 2h2a1 1 0 0 0 0-2z"/></g></symbol><symbol id="bar5" viewBox="0 0 52 49.5" xmlns="http://www.w3.org/2000/svg"><defs><style>.akcls-1{fill:#00467f}.akcls-2{fill:#fff}</style></defs><title>setting</title><path class="akcls-1" d="M46.1 49.5H6.9A5.85 5.85 0 0 1 1 43.6V6.9A5.85 5.85 0 0 1 6.9 1h39.2A5.91 5.91 0 0 1 52 6.9v36.7a6 6 0 0 1-5.9 5.9zM6.9 2.8a4.06 4.06 0 0 0-4.1 4.1v36.7a4.06 4.06 0 0 0 4.1 4.1h39.2a4.06 4.06 0 0 0 4.1-4.1V6.9a4.06 4.06 0 0 0-4.1-4.1z"/><path class="akcls-2" d="M45.1 48.5H5.9A5.85 5.85 0 0 1 0 42.6V5.9A5.85 5.85 0 0 1 5.9 0h39.2A5.91 5.91 0 0 1 51 5.9v36.7a6 6 0 0 1-5.9 5.9zM5.9 1.8a4.06 4.06 0 0 0-4.1 4.1v36.7a4.06 4.06 0 0 0 4.1 4.1h39.2a4.06 4.06 0 0 0 4.1-4.1V5.9a4.06 4.06 0 0 0-4.1-4.1z"/><g id="akToggles_1_2x.png" data-name="Toggles 1@2x.png"><path class="akcls-1" d="M5.5 11.2h5.1a5 5 0 0 0 9.8 0h27.1a.94.94 0 0 0 1-1 .94.94 0 0 0-1-1H20.4a5 5 0 0 0-9.8 0H5.5a.94.94 0 0 0-1 1 .94.94 0 0 0 1 1zm10-4a3 3 0 0 1 3 3 3 3 0 1 1-6 0 3 3 0 0 1 3-3zm32 32H28.4a5 5 0 0 0-9.8 0H5.5a1 1 0 0 0 0 2h13.1a5 5 0 0 0 9.8 0h19.1a.94.94 0 0 0 1-1 1.08 1.08 0 0 0-1-1zm-24 4a3 3 0 1 1 3-3 3 3 0 0 1-3 3zm24-19h-3.1a5 5 0 0 0-9.8 0H5.5a1 1 0 0 0 0 2h29.1a5 5 0 0 0 9.8 0h3.1a.94.94 0 0 0 1-1 1.08 1.08 0 0 0-1-1zm-8 4a3 3 0 1 1 3-3 3 3 0 0 1-3 3z"/><path class="akcls-2" d="M4.5 10.2h5.1a5 5 0 0 0 9.8 0h27.1a.94.94 0 0 0 1-1 .94.94 0 0 0-1-1H19.4a5 5 0 0 0-9.8 0H4.5a.94.94 0 0 0-1 1 .94.94 0 0 0 1 1zm10-4a3 3 0 0 1 3 3 3 3 0 1 1-6 0 3 3 0 0 1 3-3zm32 32H27.4a5 5 0 0 0-9.8 0H4.5a1 1 0 0 0 0 2h13.1a5 5 0 0 0 9.8 0h19.1a.94.94 0 0 0 1-1 1.08 1.08 0 0 0-1-1zm-24 4a3 3 0 1 1 3-3 3 3 0 0 1-3 3zm24-19h-3.1a5 5 0 0 0-9.8 0H4.5a1 1 0 0 0 0 2h29.1a5 5 0 0 0 9.8 0h3.1a.94.94 0 0 0 1-1 1.08 1.08 0 0 0-1-1zm-8 4a3 3 0 1 1 3-3 3 3 0 0 1-3 3z"/></g></symbol><symbol id="bar5H" viewBox="0 0 52 49.5" xmlns="http://www.w3.org/2000/svg"><defs><style>.alcls-1{fill:#995716}.alcls-2{fill:#ffe650}</style></defs><title>Hover_setting</title><path class="alcls-1" d="M46.1 49.5H6.9A5.85 5.85 0 0 1 1 43.6V6.9A5.85 5.85 0 0 1 6.9 1h39.2A5.91 5.91 0 0 1 52 6.9v36.7a6 6 0 0 1-5.9 5.9zM6.9 2.8a4.06 4.06 0 0 0-4.1 4.1v36.7a4.06 4.06 0 0 0 4.1 4.1h39.2a4.06 4.06 0 0 0 4.1-4.1V6.9a4.06 4.06 0 0 0-4.1-4.1z"/><path class="alcls-2" d="M45.1 48.5H5.9A5.85 5.85 0 0 1 0 42.6V5.9A5.85 5.85 0 0 1 5.9 0h39.2A5.91 5.91 0 0 1 51 5.9v36.7a6 6 0 0 1-5.9 5.9zM5.9 1.8a4.06 4.06 0 0 0-4.1 4.1v36.7a4.06 4.06 0 0 0 4.1 4.1h39.2a4.06 4.06 0 0 0 4.1-4.1V5.9a4.06 4.06 0 0 0-4.1-4.1z"/><g id="alToggles_1_2x.png" data-name="Toggles 1@2x.png"><path class="alcls-1" d="M5.5 11.2h5.1a5 5 0 0 0 9.8 0h27.1a.94.94 0 0 0 1-1 .94.94 0 0 0-1-1H20.4a5 5 0 0 0-9.8 0H5.5a.94.94 0 0 0-1 1 .94.94 0 0 0 1 1zm10-4a3 3 0 0 1 3 3 3 3 0 1 1-6 0 3 3 0 0 1 3-3zm32 32H28.4a5 5 0 0 0-9.8 0H5.5a1 1 0 0 0 0 2h13.1a5 5 0 0 0 9.8 0h19.1a.94.94 0 0 0 1-1 1.08 1.08 0 0 0-1-1zm-24 4a3 3 0 1 1 3-3 3 3 0 0 1-3 3zm24-19h-3.1a5 5 0 0 0-9.8 0H5.5a1 1 0 0 0 0 2h29.1a5 5 0 0 0 9.8 0h3.1a.94.94 0 0 0 1-1 1.08 1.08 0 0 0-1-1zm-8 4a3 3 0 1 1 3-3 3 3 0 0 1-3 3z"/><path class="alcls-2" d="M4.5 10.2h5.1a5 5 0 0 0 9.8 0h27.1a.94.94 0 0 0 1-1 .94.94 0 0 0-1-1H19.4a5 5 0 0 0-9.8 0H4.5a.94.94 0 0 0-1 1 .94.94 0 0 0 1 1zm10-4a3 3 0 0 1 3 3 3 3 0 1 1-6 0 3 3 0 0 1 3-3zm32 32H27.4a5 5 0 0 0-9.8 0H4.5a1 1 0 0 0 0 2h13.1a5 5 0 0 0 9.8 0h19.1a.94.94 0 0 0 1-1 1.08 1.08 0 0 0-1-1zm-24 4a3 3 0 1 1 3-3 3 3 0 0 1-3 3zm24-19h-3.1a5 5 0 0 0-9.8 0H4.5a1 1 0 0 0 0 2h29.1a5 5 0 0 0 9.8 0h3.1a.94.94 0 0 0 1-1 1.08 1.08 0 0 0-1-1zm-8 4a3 3 0 1 1 3-3 3 3 0 0 1-3 3z"/></g></symbol><symbol id="checked" viewBox="0 0 26 26" xmlns="http://www.w3.org/2000/svg"><style>.amst0{fill:#fff}</style><path class="amst0" d="M.3 14c-.2-.2-.3-.5-.3-.7s.1-.5.3-.7l1.4-1.4c.4-.4 1-.4 1.4 0l.1.1 5.5 5.9c.2.2.5.2.7 0L22.8 3.3h.1c.4-.4 1-.4 1.4 0l1.4 1.4c.4.4.4 1 0 1.4l-16 16.6c-.2.2-.4.3-.7.3s-.5-.1-.7-.3L.5 14.3.3 14z"/></symbol><symbol viewBox="0 0 44 32" id="email" xmlns="http://www.w3.org/2000/svg"><title>emailAsset 1</title><path class="ancls-1" d="M40 0H4a4 4 0 0 0-4 4v24a4 4 0 0 0 4 4h36a4 4 0 0 0 4-4V4a4 4 0 0 0-4-4zM4 2h36a2 2 0 0 1 .67.12L23.36 19.43a1.91 1.91 0 0 1-2.71 0L3.33 2.12A2 2 0 0 1 4 2zM2 28V4a2 2 0 0 1 0-.35L14.38 16 2 28.35A2 2 0 0 1 2 28zm38 2H4a2 2 0 0 1-.67-.12L15.8 17.41l3.43 3.43a3.91 3.91 0 0 0 5.54 0l3.43-3.43 12.47 12.47A2 2 0 0 1 40 30zm2-2a2 2 0 0 1 0 .35L29.62 16 42 3.65A2 2 0 0 1 42 4z" data-name="Layer 2"/></symbol><symbol id="general" viewBox="0 0 45 34.5" xmlns="http://www.w3.org/2000/svg"><style>.aost0{fill:#00467f}.aost1{fill:#fff}</style><title>generalAsset 11</title><path class="aost0" d="M26 27.5h12c.6 0 1-.4 1-1s-.4-1-1-1H26c-.6 0-1 .4-1 1s.4 1 1 1zM26 23.5h8c.6 0 1-.4 1-1s-.4-1-1-1h-8c-.6 0-1 .4-1 1s.4 1 1 1zM26 15.5h8c.6 0 1-.4 1-1s-.4-1-1-1h-8c-.6 0-1 .4-1 1s.4 1 1 1zM26 19.5h12c.6 0 1-.4 1-1s-.4-1-1-1H26c-.6 0-1 .4-1 1s.4 1 1 1zM8 15.5h12c.6 0 1-.4 1-1s-.4-1-1-1H8c-.6 0-1 .4-1 1s.4 1 1 1z"/><path class="aost0" d="M43 6.5H26.3c.3-.5.5-1.1.5-1.8 0-2-1.7-3.7-3.7-3.7s-3.7 1.7-3.7 3.7c0 .7.2 1.3.5 1.8H3c-1.1 0-2 .9-2 2v24c0 1.1.9 2 2 2h40c1.1 0 2-.9 2-2v-24c0-1.1-.9-2-2-2zM23 3c.9 0 1.7.8 1.7 1.7S24 6.4 23 6.4s-1.7-.8-1.7-1.7S22.1 3 23 3zm20 29.5H3v-24h40v24z"/><path class="aost0" d="M8 27.5h8c.6 0 1-.4 1-1s-.4-1-1-1H8c-.6 0-1 .4-1 1s.4 1 1 1zM8 23.5h12c.6 0 1-.4 1-1s-.4-1-1-1H8c-.6 0-1 .4-1 1s.4 1 1 1zM8 19.5h8c.6 0 1-.4 1-1s-.4-1-1-1H8c-.6 0-1 .4-1 1s.4 1 1 1z"/><g><path class="aost1" d="M25 26.5h12c.6 0 1-.4 1-1s-.4-1-1-1H25c-.6 0-1 .4-1 1s.4 1 1 1zM25 22.5h8c.6 0 1-.4 1-1s-.4-1-1-1h-8c-.6 0-1 .4-1 1s.4 1 1 1zM25 14.5h8c.6 0 1-.4 1-1s-.4-1-1-1h-8c-.6 0-1 .4-1 1s.4 1 1 1zM25 18.5h12c.6 0 1-.4 1-1s-.4-1-1-1H25c-.6 0-1 .4-1 1s.4 1 1 1zM7 14.5h12c.6 0 1-.4 1-1s-.4-1-1-1H7c-.6 0-1 .4-1 1s.4 1 1 1z"/><path class="aost1" d="M42 5.5H25.3c.3-.5.5-1.1.5-1.8 0-2-1.7-3.7-3.7-3.7s-3.7 1.7-3.7 3.7c0 .7.2 1.3.5 1.8H2c-1.1 0-2 .9-2 2v24c0 1.1.9 2 2 2h40c1.1 0 2-.9 2-2v-24c0-1.1-.9-2-2-2zM22 2c.9 0 1.7.8 1.7 1.7S23 5.4 22 5.4s-1.7-.8-1.7-1.7S21.1 2 22 2zm20 29.5H2v-24h40v24z"/><path class="aost1" d="M7 26.5h8c.6 0 1-.4 1-1s-.4-1-1-1H7c-.6 0-1 .4-1 1s.4 1 1 1zM7 22.5h12c.6 0 1-.4 1-1s-.4-1-1-1H7c-.6 0-1 .4-1 1s.4 1 1 1zM7 18.5h8c.6 0 1-.4 1-1s-.4-1-1-1H7c-.6 0-1 .4-1 1s.4 1 1 1z"/></g></symbol><symbol id="generalH" viewBox="0 0 45 34.5" xmlns="http://www.w3.org/2000/svg"><style>.apst0{fill:#995716}.apst1{fill:#ffe650}</style><title>generalAsset 11</title><path class="apst0" d="M26 27.5h12c.6 0 1-.4 1-1s-.4-1-1-1H26c-.6 0-1 .4-1 1s.4 1 1 1zM26 23.5h8c.6 0 1-.4 1-1s-.4-1-1-1h-8c-.6 0-1 .4-1 1s.4 1 1 1zM26 15.5h8c.6 0 1-.4 1-1s-.4-1-1-1h-8c-.6 0-1 .4-1 1s.4 1 1 1zM26 19.5h12c.6 0 1-.4 1-1s-.4-1-1-1H26c-.6 0-1 .4-1 1s.4 1 1 1zM8 15.5h12c.6 0 1-.4 1-1s-.4-1-1-1H8c-.6 0-1 .4-1 1s.4 1 1 1z"/><path class="apst0" d="M43 6.5H26.3c.3-.5.5-1.1.5-1.8 0-2-1.7-3.7-3.7-3.7s-3.7 1.7-3.7 3.7c0 .7.2 1.3.5 1.8H3c-1.1 0-2 .9-2 2v24c0 1.1.9 2 2 2h40c1.1 0 2-.9 2-2v-24c0-1.1-.9-2-2-2zM23 3c.9 0 1.7.8 1.7 1.7S24 6.4 23 6.4s-1.7-.8-1.7-1.7S22.1 3 23 3zm20 29.5H3v-24h40v24z"/><path class="apst0" d="M8 27.5h8c.6 0 1-.4 1-1s-.4-1-1-1H8c-.6 0-1 .4-1 1s.4 1 1 1zM8 23.5h12c.6 0 1-.4 1-1s-.4-1-1-1H8c-.6 0-1 .4-1 1s.4 1 1 1zM8 19.5h8c.6 0 1-.4 1-1s-.4-1-1-1H8c-.6 0-1 .4-1 1s.4 1 1 1z"/><g><path class="apst1" d="M25 26.5h12c.6 0 1-.4 1-1s-.4-1-1-1H25c-.6 0-1 .4-1 1s.4 1 1 1zM25 22.5h8c.6 0 1-.4 1-1s-.4-1-1-1h-8c-.6 0-1 .4-1 1s.4 1 1 1zM25 14.5h8c.6 0 1-.4 1-1s-.4-1-1-1h-8c-.6 0-1 .4-1 1s.4 1 1 1zM25 18.5h12c.6 0 1-.4 1-1s-.4-1-1-1H25c-.6 0-1 .4-1 1s.4 1 1 1zM7 14.5h12c.6 0 1-.4 1-1s-.4-1-1-1H7c-.6 0-1 .4-1 1s.4 1 1 1z"/><path class="apst1" d="M42 5.5H25.3c.3-.5.5-1.1.5-1.8 0-2-1.7-3.7-3.7-3.7s-3.7 1.7-3.7 3.7c0 .7.2 1.3.5 1.8H2c-1.1 0-2 .9-2 2v24c0 1.1.9 2 2 2h40c1.1 0 2-.9 2-2v-24c0-1.1-.9-2-2-2zM22 2c.9 0 1.7.8 1.7 1.7S23 5.4 22 5.4s-1.7-.8-1.7-1.7S21.1 2 22 2zm20 29.5H2v-24h40v24z"/><path class="apst1" d="M7 26.5h8c.6 0 1-.4 1-1s-.4-1-1-1H7c-.6 0-1 .4-1 1s.4 1 1 1zM7 22.5h12c.6 0 1-.4 1-1s-.4-1-1-1H7c-.6 0-1 .4-1 1s.4 1 1 1zM7 18.5h8c.6 0 1-.4 1-1s-.4-1-1-1H7c-.6 0-1 .4-1 1s.4 1 1 1z"/></g></symbol><symbol viewBox="0 0 23.09 43.75" id="help" xmlns="http://www.w3.org/2000/svg"><title>Asset 3</title><path class="aqcls-1" d="M7.58 31.25v-1.56a13 13 0 0 1 1-5.57 14.9 14.9 0 0 1 3.92-4.62 26.16 26.16 0 0 0 5-5 7.61 7.61 0 0 0 1-4.05 5.64 5.64 0 0 0-1.9-4.56 8.21 8.21 0 0 0-5.45-1.61 18.55 18.55 0 0 0-4.46.54 24.22 24.22 0 0 0-5 2L0 2.86A24.31 24.31 0 0 1 11.43 0Q17 0 20 2.72a9.71 9.71 0 0 1 3.07 7.67 11.2 11.2 0 0 1-.56 3.72 10.92 10.92 0 0 1-1.66 3 39.92 39.92 0 0 1-4.75 4.62 17.83 17.83 0 0 0-3.86 4.14 8.86 8.86 0 0 0-.94 4.4v1zm-1.42 8.59q0-3.94 3.47-3.94a3.31 3.31 0 0 1 2.59 1 4.23 4.23 0 0 1 .91 2.92 4.15 4.15 0 0 1-.93 2.88 3.29 3.29 0 0 1-2.58 1 3.52 3.52 0 0 1-2.49-.91 3.92 3.92 0 0 1-.97-2.95z" data-name="Layer 2"/></symbol><symbol id="hover-logout" viewBox="0 0 32 44" xmlns="http://www.w3.org/2000/svg"><style/><path class="arst0" d="M8 10c.3 0 .5-.1.7-.3L15 3.4V35c0 .6.4 1 1 1s1-.4 1-1V3.4l6.3 6.3c.2.2.4.3.7.3.6 0 1-.4 1-1 0-.3-.1-.5-.3-.7l-8-8c-.2-.2-.4-.3-.7-.3s-.5.1-.7.3l-8 8c-.2.2-.3.4-.3.7 0 .6.4 1 1 1zm23 4H20c-.6 0-1 .4-1 1s.4 1 1 1h10v26H2V16h10c.6 0 1-.4 1-1s-.4-1-1-1H1c-.6 0-1 .4-1 1v28c0 .6.4 1 1 1h30c.6 0 1-.4 1-1V15c0-.6-.4-1-1-1z" id="arShare"/></symbol><symbol id="locations" viewBox="0 0 33 45" xmlns="http://www.w3.org/2000/svg"><style>.asst0{fill:#00467f}.asst1{fill:#fff}</style><title>locationsAsset 10</title><g id="asLayer_2"><path class="asst0" d="M17 1C8.2 1 1 8.2 1 17c0 13 16 28 16 28s16-15 16-28c0-8.8-7.2-16-16-16zm0 41S3 29 3 17C3 9.3 9.3 3 17 3s14 6.3 14 14c0 12-14 25-14 25zm0-33c-4.4 0-8 3.6-8 8s3.6 8 8 8 8-3.6 8-8-3.6-8-8-8zm0 14c-3.3 0-6-2.7-6-6s2.7-6 6-6 6 2.7 6 6-2.7 6-6 6z"/><path class="asst1" d="M16 0C7.2 0 0 7.2 0 16c0 13 16 28 16 28s16-15 16-28c0-8.8-7.2-16-16-16zm0 41S2 28 2 16C2 8.3 8.3 2 16 2s14 6.3 14 14c0 12-14 25-14 25zm0-33c-4.4 0-8 3.6-8 8s3.6 8 8 8 8-3.6 8-8-3.6-8-8-8zm0 14c-3.3 0-6-2.7-6-6s2.7-6 6-6 6 2.7 6 6-2.7 6-6 6z"/></g></symbol><symbol id="locationsH" viewBox="0 0 33 45" xmlns="http://www.w3.org/2000/svg"><style>.atst0{fill:#995716}.atst1{fill:#ffe650}</style><title>locationsAsset 10</title><g id="atLayer_2"><path class="atst0" d="M17 1C8.2 1 1 8.2 1 17c0 13 16 28 16 28s16-15 16-28c0-8.8-7.2-16-16-16zm0 41S3 29 3 17C3 9.3 9.3 3 17 3s14 6.3 14 14c0 12-14 25-14 25zm0-33c-4.4 0-8 3.6-8 8s3.6 8 8 8 8-3.6 8-8-3.6-8-8-8zm0 14c-3.3 0-6-2.7-6-6s2.7-6 6-6 6 2.7 6 6-2.7 6-6 6z"/><path class="atst1" d="M16 0C7.2 0 0 7.2 0 16c0 13 16 28 16 28s16-15 16-28c0-8.8-7.2-16-16-16zm0 41S2 28 2 16C2 8.3 8.3 2 16 2s14 6.3 14 14c0 12-14 25-14 25zm0-33c-4.4 0-8 3.6-8 8s3.6 8 8 8 8-3.6 8-8-3.6-8-8-8zm0 14c-3.3 0-6-2.7-6-6s2.7-6 6-6 6 2.7 6 6-2.7 6-6 6z"/></g></symbol><symbol id="look" viewBox="0 0 512 512" xmlns="http://www.w3.org/2000/svg"><style>.aust0{fill:#bebebe}.aust1{fill:#f2f2f2}.aust2{fill:#d2d2d2}.aust3{fill:#535353}.aust4{fill:#b2b2b2}.aust5{fill:#989898}</style><path class="aust0" d="M317.9 319.7l-2.1 89.6-59.8 40.6-58.7-39.5-3.2-90.7s19.2-18.1 13.9-36.3h93.9c-3.2 18.2 16 36.3 16 36.3z"/><path class="aust1" d="M446.9 472.3v-30.9c0-29.9-16-57.6-41.6-72.5l-43.7-24.5-43.7-24.5-38.4 92.8-14.9-62.9 10.7-11.7h-38.4l10.7 11.7-14.9 62.9-37.3-92.8-43.7 24.5-43.7 24.5c-25.6 14.9-41.6 42.7-41.6 72.5v30.9h380.5z"/><ellipse transform="rotate(-22.422 179.152 205.77)" class="aust0" cx="179.2" cy="205.8" rx="14.9" ry="21.3"/><ellipse transform="rotate(-67.58 331.958 205.796)" class="aust0" cx="332" cy="205.8" rx="21.3" ry="14.9"/><path class="aust2" d="M341.3 170.4c0 4.3 0 9.6-1.1 14.9-6.4 50.1-41.6 131.2-84.3 131.2s-77.9-81.1-84.3-132.3c-1.1-4.3-1.1-9.6-1.1-13.9 0-46.9 38.4-85.3 85.3-85.3s85.5 38.5 85.5 85.4z"/><path class="aust3" d="M173.9 200.3c-2.1-11.7-1.1-27.7 6.4-36.3 0 0-6.4-54.4 33.1-51.2 0 0 32 10.7 91.7 0 0 0 24.5-1.1 20.3 24.5 0 0-6.4 23.5 6.4 28.8l5.3 33.1 5.3-24.5c9.6-44.8-1.1-89.6-42.7-109.9h-1.1c5.3-7.5 16-4.3 16-4.3-70.4-44.8-117.3-3.2-117.3-3.2-50.1 45.9-34.1 99.2-34.1 99.2-5.3 19.2 10.7 43.8 10.7 43.8z"/><path class="aust4" d="M99.2 356l43.7-24.5 39.5-22.4V308c4.3-5.3 7.5-11.7 10.7-18.1-9.6-14.9-18.1-32-24.5-51.2-7.5-4.3-13.9-11.7-17.1-20.3-4.3-9.6-4.3-20.3-1.1-29.9-4.3-11.7-6.4-22.4-4.3-32-1.1-6.4-3.2-20.3-1.1-36.3-27.7-1.1-43.7 13.9-43.7 13.9-38.4 35.2-26.7 75.7-26.7 75.7-2.1 8.5 1.1 18.1 5.3 25.6-3.2 3.2-4.3 10.7-1.1 17.1 2.1 6.4 7.5 9.6 11.7 10.7 5.3 16 12.8 32 21.3 44.8 3.2 13.9-10.7 27.7-10.7 27.7L67 354.9l-35 18.2c-20.3 11.7-32 32-32 55.5v10.7h49.1c1-34.2 20.2-66.2 50.1-83.3zM480 373.1l-33.1-19.2-34.1-19.2s-13.9-13.9-10.7-27.7c8.5-12.8 16-28.8 21.3-44.8 4.3-1.1 9.6-5.3 11.7-10.7 3.2-8.5 1.1-17.1-4.3-19.2l2.1-8.5c7.5-34.1-1.1-69.3-32-84.3-1.1-1.1-2.1-1.1-2.1-1.1 4.3-5.3 11.7-3.2 11.7-3.2-19.2-12.8-36.3-16-51.2-16 4.3 18.1 3.2 38.4-1.1 59.7v2.1c6.4 9.6 8.5 23.5 2.1 36.3-3.2 8.5-9.6 16-17.1 20.3-6.4 19.2-14.9 36.3-24.5 51.2 3.2 6.4 6.4 12.8 10.7 18.1v1.1l82.1 46.9c30.9 17.1 49.1 49.1 50.1 84.3H512v-10.7c0-22.4-12.8-43.7-32-55.4z"/><path class="aust5" d="M387.2 416.8h-20.3v-20.3h-13.8v20.3h-20.3v13.9h20.3v20.2h13.8v-20.2h20.3z"/></symbol><symbol viewBox="0 0 512 512" id="lookH" xmlns="http://www.w3.org/2000/svg"><path d="M317.867 319.721l-2.133 89.6L256 449.855l-58.667-39.467-3.2-90.667s19.2-18.133 13.867-36.267h93.867c-3.2 18.134 16 36.267 16 36.267z" fill="#f8b64c"/><path d="M446.933 472.255v-30.933c0-29.867-16-57.6-41.6-72.533L361.6 344.255l-43.733-24.533-38.4 92.8-14.933-62.933 10.667-11.733h-38.4l10.667 11.733-14.933 62.933-37.333-92.8-43.733 24.533-43.733 24.533c-25.6 14.933-41.6 42.667-41.6 72.533v30.933h380.797z" fill="#f2f2f2"/><g fill="#f8b64c"><ellipse transform="rotate(-112.42 179.157 205.764)" cx="179.157" cy="205.763" rx="21.333" ry="14.933"/><ellipse transform="rotate(112.42 331.957 205.795)" cx="331.955" cy="205.795" rx="21.333" ry="14.933"/></g><path d="M341.333 170.388c0 4.267 0 9.6-1.067 14.933-6.4 50.133-41.6 131.2-84.267 131.2s-77.867-81.067-84.267-132.267c-1.067-4.267-1.067-9.6-1.067-13.867 0-46.933 38.4-85.333 85.333-85.333s85.335 38.401 85.335 85.334z" fill="#ffd15c"/><path d="M173.867 200.255c-2.133-11.733-1.067-27.733 6.4-36.267 0 0-6.4-54.4 33.067-51.2 0 0 32 10.667 91.733 0 0 0 24.533-1.067 20.267 24.533 0 0-6.4 23.467 6.4 28.8l5.333 33.067 5.333-24.533c9.6-44.8-1.067-89.6-42.667-109.867h-1.067c5.333-7.467 16-4.267 16-4.267-70.4-44.8-117.333-3.2-117.333-3.2-50.133 45.867-34.133 99.2-34.133 99.2-5.333 19.2 10.667 43.734 10.667 43.734z" fill="#40596b"/><g fill="#acb3ba"><path d="M99.2 355.988l43.733-24.533 39.467-22.4v-1.067c4.267-5.333 7.467-11.733 10.667-18.133-9.6-14.933-18.133-32-24.533-51.2-7.467-4.267-13.867-11.733-17.067-20.267-4.267-9.6-4.267-20.267-1.067-29.867-4.267-11.733-6.4-22.4-4.267-32-1.067-6.4-3.2-20.267-1.067-36.267-27.733-1.067-43.733 13.867-43.733 13.867-38.4 35.2-26.667 75.733-26.667 75.733-2.133 8.533 1.067 18.133 5.333 25.6-3.2 3.2-4.267 10.667-1.067 17.067 2.133 6.4 7.467 9.6 11.733 10.667 5.333 16 12.8 32 21.333 44.8 3.2 13.867-10.667 27.733-10.667 27.733l-34.133 19.2L32 373.055c-20.267 11.733-32 32-32 55.467v10.667h49.067c1.066-34.134 20.266-66.134 50.133-83.201zM480 373.055l-33.067-19.2-34.133-19.2s-13.867-13.867-10.667-27.733c8.533-12.8 16-28.8 21.333-44.8 4.267-1.067 9.6-5.333 11.733-10.667 3.2-8.533 1.067-17.067-4.267-19.2l2.133-8.533c7.467-34.133-1.067-69.333-32-84.267-1.067-1.067-2.133-1.067-2.133-1.067 4.267-5.333 11.733-3.2 11.733-3.2-19.2-12.8-36.267-16-51.2-16 4.267 18.133 3.2 38.4-1.067 59.733v2.133c6.4 9.6 8.533 23.467 2.133 36.267-3.2 8.533-9.6 16-17.067 20.267a227.818 227.818 0 0 1-24.533 51.2c3.2 6.4 6.4 12.8 10.667 18.133v1.067l82.133 46.933c30.933 17.067 49.067 49.067 50.133 84.267H512v-10.667c0-22.4-12.8-43.733-32-55.466z"/></g><path fill="#ff7058" d="M387.2 416.788h-20.267v-20.267h-13.866v20.267H332.8v13.867h20.267v20.266h13.866v-20.266H387.2z"/></symbol><symbol id="mistake" viewBox="0 0 225.4 225.4" xmlns="http://www.w3.org/2000/svg"><style>.awst0{fill:#fff}</style><path transform="rotate(-45.001 112.682 112.684)" class="awst0" d="M90.5-24.5h44.3v274.4H90.5z"/><path transform="rotate(-45.001 112.682 112.684)" class="awst0" d="M-24.5 90.5h274.4v44.3H-24.5z"/></symbol><symbol viewBox="0 0 45 37" id="pay" xmlns="http://www.w3.org/2000/svg"><defs><style>.axcls-1{isolation:isolate}.axcls-2{mix-blend-mode:multiply}.axcls-3{fill:#00467f}.axcls-4{fill:#fff}</style></defs><title>paymentsM</title><g class="axcls-1"><g id="axLayer_1" data-name="Layer 1"><g id="axLayer_2" data-name="Layer 2"><g class="axcls-2"><path class="axcls-3" d="M8 27.06h12a1 1 0 0 0 0-2H8a1 1 0 0 0 0 2zm18 4h4a1 1 0 0 0 1-1v-4a1 1 0 0 0-1-1h-4a1 1 0 0 0-1 1v4a1 1 0 0 0 1 1zm17-30H11a2 2 0 0 0-2 2v3a1 1 0 0 0 2 0v-3h32v24h-3a1 1 0 0 0 0 2h3a2 2 0 0 0 2-2v-24a2 2 0 0 0-2-2zm-8 8H3a2 2 0 0 0-2 2v24a2 2 0 0 0 2 2h32a2 2 0 0 0 2-2v-24a2 2 0 0 0-2-2zm0 26H3v-14h32zm0-20H3v-4h32zm-27 16h8a1 1 0 0 0 0-2H8a1 1 0 0 0 0 2z"/></g><path class="axcls-4" d="M7 26.06h12a1 1 0 0 0 0-2H7a1 1 0 0 0 0 2zm18 4h4a1 1 0 0 0 1-1v-4a1 1 0 0 0-1-1h-4a1 1 0 0 0-1 1v4a1 1 0 0 0 1 1zm17-30H10a2 2 0 0 0-2 2v3a1 1 0 0 0 2 0v-3h32v24h-3a1 1 0 0 0 0 2h3a2 2 0 0 0 2-2v-24a2 2 0 0 0-2-2zm-8 8H2a2 2 0 0 0-2 2v24a2 2 0 0 0 2 2h32a2 2 0 0 0 2-2v-24a2 2 0 0 0-2-2zm0 26H2v-14h32zm0-20H2v-4h32zm-27 16h8a1 1 0 0 0 0-2H7a1 1 0 0 0 0 2z"/></g></g></g></symbol><symbol viewBox="0 0 45 37" id="payH" xmlns="http://www.w3.org/2000/svg"><defs><style>.aycls-1{isolation:isolate}.aycls-2{mix-blend-mode:multiply}.aycls-3{fill:#995716}.aycls-4{fill:#ffe650}</style></defs><title>hover_paymentsM</title><g class="aycls-1"><g id="ayLayer_1" data-name="Layer 1"><g id="ayLayer_2" data-name="Layer 2"><g class="aycls-2"><path class="aycls-3" d="M8 27h12a1 1 0 0 0 0-2H8a1 1 0 0 0 0 2zm18 4h4a1 1 0 0 0 1-1v-4a1 1 0 0 0-1-1h-4a1 1 0 0 0-1 1v4a1 1 0 0 0 1 1zM43 1H11a2 2 0 0 0-2 2v3a1 1 0 0 0 2 0V3h32v24h-3a1 1 0 0 0 0 2h3a2 2 0 0 0 2-2V3a2 2 0 0 0-2-2zm-8 8H3a2 2 0 0 0-2 2v24a2 2 0 0 0 2 2h32a2 2 0 0 0 2-2V11a2 2 0 0 0-2-2zm0 26H3V21h32zm0-20H3v-4h32zM8 31h8a1 1 0 0 0 0-2H8a1 1 0 0 0 0 2z"/></g><path class="aycls-4" d="M7 26h12a1 1 0 0 0 0-2H7a1 1 0 0 0 0 2zm18 4h4a1 1 0 0 0 1-1v-4a1 1 0 0 0-1-1h-4a1 1 0 0 0-1 1v4a1 1 0 0 0 1 1zM42 0H10a2 2 0 0 0-2 2v3a1 1 0 0 0 2 0V2h32v24h-3a1 1 0 0 0 0 2h3a2 2 0 0 0 2-2V2a2 2 0 0 0-2-2zm-8 8H2a2 2 0 0 0-2 2v24a2 2 0 0 0 2 2h32a2 2 0 0 0 2-2V10a2 2 0 0 0-2-2zm0 26H2V20h32zm0-20H2v-4h32zM7 30h8a1 1 0 0 0 0-2H7a1 1 0 0 0 0 2z"/></g></g></g></symbol><symbol id="per" viewBox="0 0 45 45" xmlns="http://www.w3.org/2000/svg"><defs><style>.azcls-1{fill:#00467f}.azcls-2{fill:#fff}</style></defs><title>Permanent</title><g id="azCalendar_1_2x.png" data-name="Calendar 1@2x.png"><path class="azcls-1" d="M41 5h-4V2a1 1 0 0 0-2 0v3H11V2a.94.94 0 0 0-1-1 .94.94 0 0 0-1 1v3H5a4 4 0 0 0-4 4v32a4 4 0 0 0 4 4h36a4 4 0 0 0 4-4V9a4 4 0 0 0-4-4zm2 36a2 2 0 0 1-2 2H5a2 2 0 0 1-2-2V17h40zm0-26H3V9a2 2 0 0 1 2-2h4v3a.94.94 0 0 0 1 1 .94.94 0 0 0 1-1V7h24v3a1 1 0 0 0 2 0V7h4a2 2 0 0 1 2 2z"/><path class="azcls-2" d="M40 4h-4V1a1 1 0 0 0-2 0v3H10V1a.94.94 0 0 0-1-1 .94.94 0 0 0-1 1v3H4a4 4 0 0 0-4 4v32a4 4 0 0 0 4 4h36a4 4 0 0 0 4-4V8a4 4 0 0 0-4-4zm2 36a2 2 0 0 1-2 2H4a2 2 0 0 1-2-2V16h40zm0-26H2V8a2 2 0 0 1 2-2h4v3a.94.94 0 0 0 1 1 .94.94 0 0 0 1-1V6h24v3a1 1 0 0 0 2 0V6h4a2 2 0 0 1 2 2z"/></g><path class="azcls-2" d="M25.8 23.2a.45.45 0 1 0-.2-.6.4.4 0 0 0 .2.6zm-7-.8a.45.45 0 1 0 .6.2.45.45 0 0 0-.6-.2zm.5 12a.45.45 0 1 0 .2.6.48.48 0 0 0-.2-.6zm-3.7-6a.5.5 0 1 0 .5.5.47.47 0 0 0-.5-.5zm6.9 6.9a.5.5 0 1 0 .5.5.47.47 0 0 0-.5-.5zM16.8 25a.45.45 0 1 0 .2.6.48.48 0 0 0-.2-.6zm-.5 6.9a.45.45 0 1 0 .6.2.4.4 0 0 0-.6-.2zm13.2-3.5a.5.5 0 1 0 .5.5c-.1-.3-.3-.5-.5-.5zm-7-9.7a10.2 10.2 0 1 0 10.2 10.2 10.18 10.18 0 0 0-10.2-10.2zm0 19.3a9.2 9.2 0 1 1 9.2-9.2 9.18 9.18 0 0 1-9.2 9.2zm5.8-13a.45.45 0 1 0 .6.2c-.1-.3-.4-.4-.6-.2zm-2.5 9.4a.45.45 0 1 0 .6.2.48.48 0 0 0-.6-.2zm3-2.5a.45.45 0 1 0 .2.6.48.48 0 0 0-.2-.6zm-2.1-3.5h-2.4a1.89 1.89 0 0 0-1.3-1.3V22a.5.5 0 1 0-1 0v5.1a1.83 1.83 0 0 0-1.4 1.8 1.79 1.79 0 0 0 1.8 1.8 1.83 1.83 0 0 0 1.8-1.4h2.4a.47.47 0 0 0 .5-.5c.1-.2-.2-.4-.4-.4zm-4.2 1.3a.9.9 0 1 1 .9-.9c.1.5-.4.9-.9.9z" id="azClock_1_2x.png" data-name="Clock 1@2x.png"/></symbol><symbol id="perH" viewBox="0 0 45 45" xmlns="http://www.w3.org/2000/svg"><defs><style>.bacls-1{fill:#995716}.bacls-2{fill:#ffe650}</style></defs><title>hover_permanent</title><g id="baCalendar_1_2x.png" data-name="Calendar 1@2x.png"><path class="bacls-1" d="M41 5h-4V2a1 1 0 0 0-2 0v3H11V2a.94.94 0 0 0-1-1 .94.94 0 0 0-1 1v3H5a4 4 0 0 0-4 4v32a4 4 0 0 0 4 4h36a4 4 0 0 0 4-4V9a4 4 0 0 0-4-4zm2 36a2 2 0 0 1-2 2H5a2 2 0 0 1-2-2V17h40zm0-26H3V9a2 2 0 0 1 2-2h4v3a.94.94 0 0 0 1 1 .94.94 0 0 0 1-1V7h24v3a1 1 0 0 0 2 0V7h4a2 2 0 0 1 2 2z"/><path class="bacls-2" d="M40 4h-4V1a1 1 0 0 0-2 0v3H10V1a.94.94 0 0 0-1-1 .94.94 0 0 0-1 1v3H4a4 4 0 0 0-4 4v32a4 4 0 0 0 4 4h36a4 4 0 0 0 4-4V8a4 4 0 0 0-4-4zm2 36a2 2 0 0 1-2 2H4a2 2 0 0 1-2-2V16h40zm0-26H2V8a2 2 0 0 1 2-2h4v3a.94.94 0 0 0 1 1 .94.94 0 0 0 1-1V6h24v3a1 1 0 0 0 2 0V6h4a2 2 0 0 1 2 2z"/></g><path class="bacls-2" d="M25.8 23.2a.45.45 0 1 0-.2-.6.4.4 0 0 0 .2.6zm-7-.8a.45.45 0 1 0 .6.2.45.45 0 0 0-.6-.2zm.5 12a.45.45 0 1 0 .2.6.48.48 0 0 0-.2-.6zm-3.7-6a.5.5 0 1 0 .5.5.47.47 0 0 0-.5-.5zm6.9 6.9a.5.5 0 1 0 .5.5.47.47 0 0 0-.5-.5zM16.8 25a.45.45 0 1 0 .2.6.48.48 0 0 0-.2-.6zm-.5 6.9a.45.45 0 1 0 .6.2.4.4 0 0 0-.6-.2zm13.2-3.5a.5.5 0 1 0 .5.5c-.1-.3-.3-.5-.5-.5zm-7-9.7a10.2 10.2 0 1 0 10.2 10.2 10.18 10.18 0 0 0-10.2-10.2zm0 19.3a9.2 9.2 0 1 1 9.2-9.2 9.18 9.18 0 0 1-9.2 9.2zm5.8-13a.45.45 0 1 0 .6.2c-.1-.3-.4-.4-.6-.2zm-2.5 9.4a.45.45 0 1 0 .6.2.48.48 0 0 0-.6-.2zm3-2.5a.45.45 0 1 0 .2.6.48.48 0 0 0-.2-.6zm-2.1-3.5h-2.4a1.89 1.89 0 0 0-1.3-1.3V22a.5.5 0 1 0-1 0v5.1a1.83 1.83 0 0 0-1.4 1.8 1.79 1.79 0 0 0 1.8 1.8 1.83 1.83 0 0 0 1.8-1.4h2.4a.47.47 0 0 0 .5-.5c.1-.2-.2-.4-.4-.4zm-4.2 1.3a.9.9 0 1 1 .9-.9c.1.5-.4.9-.9.9z" id="baClock_1_2x.png" data-name="Clock 1@2x.png"/></symbol><symbol viewBox="0 0 492.004 492.004" id="right-arrow" xmlns="http://www.w3.org/2000/svg"><path d="M382.678 226.804L163.73 7.86C158.666 2.792 151.906 0 144.698 0s-13.968 2.792-19.032 7.86l-16.124 16.12c-10.492 10.504-10.492 27.576 0 38.064L293.398 245.9l-184.06 184.06c-5.064 5.068-7.86 11.824-7.86 19.028 0 7.212 2.796 13.968 7.86 19.04l16.124 16.116c5.068 5.068 11.824 7.86 19.032 7.86s13.968-2.792 19.032-7.86L382.678 265c5.076-5.084 7.864-11.872 7.848-19.088.016-7.244-2.772-14.028-7.848-19.108z"/></symbol><symbol viewBox="0 0 44.98 45" id="temp" xmlns="http://www.w3.org/2000/svg"><defs><style>.bccls-1{isolation:isolate}.bccls-2{mix-blend-mode:multiply}.bccls-3{fill:#00467f}.bccls-4{fill:#fff}</style></defs><title>Temp</title><g class="bccls-1"><g id="bcGeneral"><g id="bcClock_1_2x.png" data-name="Clock 1@2x.png"><g class="bccls-2"><path class="bccls-3" d="M16 35.13a1 1 0 1 0 .37 1.37 1 1 0 0 0-.37-1.37zm-5.51-20.5a1 1 0 1 0 .36 1.37 1 1 0 0 0-.36-1.37zM8 22a1 1 0 1 0 1 1 1 1 0 0 0-1-1zm22-11.12a1 1 0 1 0-.37-1.37 1 1 0 0 0 .37 1.37zM15 9.14a1 1 0 1 0 1.37.37A1 1 0 0 0 15 9.14zM23 1a22 22 0 1 0 22 22A22 22 0 0 0 23 1zm0 42a20 20 0 1 1 20-20 20 20 0 0 1-20 20zM9.49 29.63a1 1 0 1 0 1.37.37 1 1 0 0 0-1.37-.37zm26-15a1 1 0 1 0 1.37.37 1 1 0 0 0-1.39-.37zm1 15a1 1 0 1 0 .34 1.37 1 1 0 0 0-.36-1.37zM38 22a1 1 0 1 0 1 1 1 1 0 0 0-1-1zM23 37a1 1 0 1 0 1 1 1 1 0 0 0-1-1zm9-15h-5.17A4 4 0 0 0 24 19.14V8a1 1 0 0 0-2 0v11.14A4 4 0 1 0 26.83 24H32a1 1 0 1 0 0-2zm-9 3a2 2 0 1 1 2-2 2 2 0 0 1-2 2zm7 10.13a1 1 0 1 0 1.37.37 1 1 0 0 0-1.37-.37z"/></g><path class="bccls-4" d="M15 34.13a1 1 0 1 0 .37 1.37 1 1 0 0 0-.37-1.37zm-5.51-20.5A1 1 0 1 0 9.85 15a1 1 0 0 0-.36-1.37zM7 21a1 1 0 1 0 1 1 1 1 0 0 0-1-1zM29 9.88a1 1 0 1 0-.37-1.37A1 1 0 0 0 29 9.88zM14 8.14a1 1 0 1 0 1.37.37A1 1 0 0 0 14 8.14zM22 0a22 22 0 1 0 22 22A22 22 0 0 0 22 0zm0 42a20 20 0 1 1 20-20 20 20 0 0 1-20 20zM8.49 28.63a1 1 0 1 0 1.36.37 1 1 0 0 0-1.36-.37zm26-15a1 1 0 1 0 1.37.37 1 1 0 0 0-1.39-.37zm1 15a1 1 0 1 0 .34 1.37 1 1 0 0 0-.36-1.37zM37 21a1 1 0 1 0 1 1 1 1 0 0 0-1-1zM22 36a1 1 0 1 0 1 1 1 1 0 0 0-1-1zm9-15h-5.17A4 4 0 0 0 23 18.14V7a1 1 0 0 0-2 0v11.14A4 4 0 1 0 25.83 23H31a1 1 0 1 0 0-2zm-9 3a2 2 0 1 1 2-2 2 2 0 0 1-2 2zm7 10.13a1 1 0 1 0 1.37.37 1 1 0 0 0-1.37-.37z"/></g></g></g></symbol><symbol viewBox="0 0 44.98 45" id="tempH" xmlns="http://www.w3.org/2000/svg"><defs><style>.bdcls-1{isolation:isolate}.bdcls-2{mix-blend-mode:multiply}.bdcls-3{fill:#995716}.bdcls-4{fill:#ffe650}</style></defs><title>Hover_temp</title><g class="bdcls-1"><g id="bdGeneral"><g id="bdClock_1_2x.png" data-name="Clock 1@2x.png"><g class="bdcls-2"><path class="bdcls-3" d="M16 35.13a1 1 0 1 0 .37 1.37 1 1 0 0 0-.37-1.37zm-5.51-20.5a1 1 0 1 0 .36 1.37 1 1 0 0 0-.36-1.37zM8 22a1 1 0 1 0 1 1 1 1 0 0 0-1-1zm22-11.12a1 1 0 1 0-.37-1.37 1 1 0 0 0 .37 1.37zM15 9.14a1 1 0 1 0 1.37.37A1 1 0 0 0 15 9.14zM23 1a22 22 0 1 0 22 22A22 22 0 0 0 23 1zm0 42a20 20 0 1 1 20-20 20 20 0 0 1-20 20zM9.49 29.63a1 1 0 1 0 1.37.37 1 1 0 0 0-1.37-.37zm26-15a1 1 0 1 0 1.37.37 1 1 0 0 0-1.39-.37zm1 15a1 1 0 1 0 .34 1.37 1 1 0 0 0-.36-1.37zM38 22a1 1 0 1 0 1 1 1 1 0 0 0-1-1zM23 37a1 1 0 1 0 1 1 1 1 0 0 0-1-1zm9-15h-5.17A4 4 0 0 0 24 19.14V8a1 1 0 0 0-2 0v11.14A4 4 0 1 0 26.83 24H32a1 1 0 1 0 0-2zm-9 3a2 2 0 1 1 2-2 2 2 0 0 1-2 2zm7 10.13a1 1 0 1 0 1.37.37 1 1 0 0 0-1.37-.37z"/></g><path class="bdcls-4" d="M15 34.13a1 1 0 1 0 .37 1.37 1 1 0 0 0-.37-1.37zm-5.51-20.5A1 1 0 1 0 9.85 15a1 1 0 0 0-.36-1.37zM7 21a1 1 0 1 0 1 1 1 1 0 0 0-1-1zM29 9.88a1 1 0 1 0-.37-1.37A1 1 0 0 0 29 9.88zM14 8.14a1 1 0 1 0 1.37.37A1 1 0 0 0 14 8.14zM22 0a22 22 0 1 0 22 22A22 22 0 0 0 22 0zm0 42a20 20 0 1 1 20-20 20 20 0 0 1-20 20zM8.49 28.63a1 1 0 1 0 1.36.37 1 1 0 0 0-1.36-.37zm26-15a1 1 0 1 0 1.37.37 1 1 0 0 0-1.39-.37zm1 15a1 1 0 1 0 .34 1.37 1 1 0 0 0-.36-1.37zM37 21a1 1 0 1 0 1 1 1 1 0 0 0-1-1zM22 36a1 1 0 1 0 1 1 1 1 0 0 0-1-1zm9-15h-5.17A4 4 0 0 0 23 18.14V7a1 1 0 0 0-2 0v11.14A4 4 0 1 0 25.83 23H31a1 1 0 1 0 0-2zm-9 3a2 2 0 1 1 2-2 2 2 0 0 1-2 2zm7 10.13a1 1 0 1 0 1.37.37 1 1 0 0 0-1.37-.37z"/></g></g></g></symbol><symbol id="want" viewBox="0 0 413 413.1" xmlns="http://www.w3.org/2000/svg"><style>.best0{display:none;fill:#2b7de1}.best1{fill:#e5e5e5;stroke:#bcbcbc;stroke-miterlimit:10}.best2{fill:#d4d4d4}.best3{fill:#454545}.best4{fill:#535353}.best5{fill:#a4a4a4}.best6{fill:#989898}.best7{fill:#e9e9e9}</style><circle class="best0" cx="206.8" cy="206.5" r="254.6"/><path class="best1" d="M299.4 111V24.1H113.5V111H17.2C7.7 111 0 118.7 0 128.2v267.6c0 9.5 7.7 17.2 17.2 17.2h378.6c9.5 0 17.2-7.7 17.2-17.2V128.3c0-9.5-7.7-17.2-17.2-17.2l-96.4-.1z"/><path class="best2" d="M106.6 0h199.6v24.1H106.6z"/><path class="best3" d="M143.6 309.8h62.8v103.3h-62.8z"/><path class="best4" d="M206.4 309.8h62.8v103.3h-62.8z"/><path class="best5" d="M129 241.8h45.6v45.6H129zM129 149.8h45.6v45.6H129zM238.3 149.8h45.6v45.6h-45.6zM238.3 241.8h45.6v45.6h-45.6zM334.7 149.8h45.6v45.6h-45.6zM334.7 241.8h45.6v45.6h-45.6zM334.7 333.9h45.6v45.6h-45.6zM32.6 149.8h45.6v45.6H32.6zM32.6 241.8h45.6v45.6H32.6zM32.6 333.9h45.6v45.6H32.6z"/><path class="best6" d="M234.8 59.4h-20.6V39.6h-15.5v19.8h-20.6v16.4h20.6v20.6h15.5V75.8h20.6z"/><path class="best7" d="M113.5 24.1h185v8.6h-185z"/></symbol><symbol id="wantH" viewBox="0 0 413 413.1" xmlns="http://www.w3.org/2000/svg"><style>.bfst0{display:none;fill:#2b7de1}.bfst1{fill:#e5e5e5;stroke:#bcbcbc;stroke-miterlimit:10}.bfst2{fill:#cdd6e0}.bfst3{fill:#334a5e}.bfst4{fill:#40596b}.bfst5{fill:#54c0eb}.bfst6{fill:#ff7058}.bfst7{fill:#e4eaef}</style><circle class="bfst0" cx="206.8" cy="206.5" r="254.6"/><path class="bfst1" d="M299.4 111V24.1H113.5V111H17.2C7.7 111 0 118.7 0 128.2v267.6c0 9.5 7.7 17.2 17.2 17.2h378.6c9.5 0 17.2-7.7 17.2-17.2V128.3c0-9.5-7.7-17.2-17.2-17.2l-96.4-.1z"/><path class="bfst2" d="M106.6 0h199.6v24.1H106.6z"/><path class="bfst3" d="M143.6 309.8h62.8v103.3h-62.8z"/><path class="bfst4" d="M206.4 309.8h62.8v103.3h-62.8z"/><path class="bfst5" d="M129 241.8h45.6v45.6H129zM129 149.8h45.6v45.6H129zM238.3 149.8h45.6v45.6h-45.6zM238.3 241.8h45.6v45.6h-45.6zM334.7 149.8h45.6v45.6h-45.6zM334.7 241.8h45.6v45.6h-45.6zM334.7 333.9h45.6v45.6h-45.6zM32.6 149.8h45.6v45.6H32.6zM32.6 241.8h45.6v45.6H32.6zM32.6 333.9h45.6v45.6H32.6z"/><path class="bfst6" d="M234.8 59.4h-20.6V39.6h-15.5v19.8h-20.6v16.4h20.6v20.6h15.5V75.8h20.6z"/><path class="bfst7" d="M113.5 24.1h185v8.6h-185z"/></symbol></svg>