<svg id="General" xmlns="http://www.w3.org/2000/svg" viewBox="0 0 46 38"><defs><style>.cls-1{fill:#995716;}.cls-2{fill:#ffe650;}</style></defs><title>hover postin</title><g id="Briefcase_2x.png" data-name="Briefcase@2x.png"><path class="cls-1" d="M44,6H32a4,4,0,0,0-4-4H20a4,4,0,0,0-4,4H4A2,2,0,0,0,2,8V18a2,2,0,0,0,2,2V36a2,2,0,0,0,2,2H42a2,2,0,0,0,2-2V20a2,2,0,0,0,2-2V8A2,2,0,0,0,44,6ZM20,4h8a2,2,0,0,1,2,2H18A2,2,0,0,1,20,4ZM42,36H6V20h4v2a2,2,0,0,0,2,2h4a2,2,0,0,0,2-2V20H30v2a2,2,0,0,0,2,2h4a2,2,0,0,0,2-2V20h4ZM12,22V16h4v6Zm20,0V16h4v6Zm12-4H38V16a2,2,0,0,0-2-2H32a2,2,0,0,0-2,2v2H18V16a2,2,0,0,0-2-2H12a2,2,0,0,0-2,2v2H4V8H44Z"/><path class="cls-2" d="M42.5,4.56h-12a4,4,0,0,0-4-4h-8a4,4,0,0,0-4,4H2.5a2,2,0,0,0-2,2v10a2,2,0,0,0,2,2v16a2,2,0,0,0,2,2h36a2,2,0,0,0,2-2v-16a2,2,0,0,0,2-2v-10A2,2,0,0,0,42.5,4.56Zm-24-2h8a2,2,0,0,1,2,2h-12A2,2,0,0,1,18.5,2.56Zm22,32H4.5v-16h4v2a2,2,0,0,0,2,2h4a2,2,0,0,0,2-2v-2h12v2a2,2,0,0,0,2,2h4a2,2,0,0,0,2-2v-2h4Zm-30-14v-6h4v6Zm20,0v-6h4v6Zm12-4h-6v-2a2,2,0,0,0-2-2h-4a2,2,0,0,0-2,2v2h-12v-2a2,2,0,0,0-2-2h-4a2,2,0,0,0-2,2v2h-6v-10h40Z"/></g></svg>