<svg id="General" xmlns="http://www.w3.org/2000/svg" viewBox="0 0 45 45.25"><defs><style>.cls-1{fill:#995716;}.cls-2{fill:#ffe650;}</style></defs><title>Hover-hiring</title><g id="Box_with_Papers_2x.png" data-name="Box with Papers@2x.png"><path class="cls-1" d="M17,31.22H29a2,2,0,0,0,2-2v-2a2,2,0,0,0-2-2H17a2,2,0,0,0-2,2v2A2,2,0,0,0,17,31.22Zm0-4H29v2H17Zm26-14H39v-8a2,2,0,0,0-2-2H29l-2-2H9a2,2,0,0,0-2,2v10H3a2,2,0,0,0-2,2v4a2,2,0,0,0,2,2H5v22a2,2,0,0,0,2,2H39a2,2,0,0,0,2-2v-22h2a2,2,0,0,0,2-2v-4A1.94,1.94,0,0,0,43,13.23Zm-6-8v8H33v-6l-2-2Zm-10-1,3,3H27Zm-18-1H25v5a.94.94,0,0,0,1,1h5v4H9Zm30,40H7v-22H39Zm4-24H3v-4H43Z"/><path class="cls-2" d="M16,30.22H28a2,2,0,0,0,2-2v-2a2,2,0,0,0-2-2H16a2,2,0,0,0-2,2v2A2,2,0,0,0,16,30.22Zm0-4H28v2H16Zm26-14H38v-8a2,2,0,0,0-2-2H28l-2-2H8a2,2,0,0,0-2,2v10H2a2,2,0,0,0-2,2v4a2,2,0,0,0,2,2H4v22a2,2,0,0,0,2,2H38a2,2,0,0,0,2-2v-22h2a2,2,0,0,0,2-2v-4A1.94,1.94,0,0,0,42,12.23Zm-6-8v8H32v-6l-2-2Zm-10-1,3,3H26Zm-18-1H24v5a.94.94,0,0,0,1,1h5v4H8Zm30,40H6v-22H38Zm4-24H2v-4H42Z"/></g></svg>