<svg id="General" xmlns="http://www.w3.org/2000/svg" viewBox="0 0 52 49.5"><defs><style>.cls-1{fill:#00467f;}.cls-2{fill:#fff;}</style></defs><title>setting</title><path class="cls-1" d="M46.1,49.5H6.9A5.85,5.85,0,0,1,1,43.6V6.9A5.85,5.85,0,0,1,6.9,1H46.1A5.91,5.91,0,0,1,52,6.9V43.6A6,6,0,0,1,46.1,49.5ZM6.9,2.8A4.06,4.06,0,0,0,2.8,6.9V43.6a4.06,4.06,0,0,0,4.1,4.1H46.1a4.06,4.06,0,0,0,4.1-4.1V6.9a4.06,4.06,0,0,0-4.1-4.1Z"/><path class="cls-2" d="M45.1,48.5H5.9A5.85,5.85,0,0,1,0,42.6V5.9A5.85,5.85,0,0,1,5.9,0H45.1A5.91,5.91,0,0,1,51,5.9V42.6A6,6,0,0,1,45.1,48.5ZM5.9,1.8A4.06,4.06,0,0,0,1.8,5.9V42.6a4.06,4.06,0,0,0,4.1,4.1H45.1a4.06,4.06,0,0,0,4.1-4.1V5.9a4.06,4.06,0,0,0-4.1-4.1Z"/><g id="Toggles_1_2x.png" data-name="Toggles 1@2x.png"><path class="cls-1" d="M5.5,11.2h5.1a5,5,0,0,0,9.8,0H47.5a.94.94,0,0,0,1-1,.94.94,0,0,0-1-1H20.4a5,5,0,0,0-9.8,0H5.5a.94.94,0,0,0-1,1A.94.94,0,0,0,5.5,11.2Zm10-4a3,3,0,0,1,3,3,3,3,0,1,1-6,0A3,3,0,0,1,15.5,7.2Zm32,32H28.4a5,5,0,0,0-9.8,0H5.5a1,1,0,0,0,0,2H18.6a5,5,0,0,0,9.8,0H47.5a.94.94,0,0,0,1-1A1.08,1.08,0,0,0,47.5,39.2Zm-24,4a3,3,0,1,1,3-3A3,3,0,0,1,23.5,43.2Zm24-19H44.4a5,5,0,0,0-9.8,0H5.5a1,1,0,0,0,0,2H34.6a5,5,0,0,0,9.8,0h3.1a.94.94,0,0,0,1-1A1.08,1.08,0,0,0,47.5,24.2Zm-8,4a3,3,0,1,1,3-3A3,3,0,0,1,39.5,28.2Z"/><path class="cls-2" d="M4.5,10.2H9.6a5,5,0,0,0,9.8,0H46.5a.94.94,0,0,0,1-1,.94.94,0,0,0-1-1H19.4a5,5,0,0,0-9.8,0H4.5a.94.94,0,0,0-1,1A.94.94,0,0,0,4.5,10.2Zm10-4a3,3,0,0,1,3,3,3,3,0,1,1-6,0A3,3,0,0,1,14.5,6.2Zm32,32H27.4a5,5,0,0,0-9.8,0H4.5a1,1,0,0,0,0,2H17.6a5,5,0,0,0,9.8,0H46.5a.94.94,0,0,0,1-1A1.08,1.08,0,0,0,46.5,38.2Zm-24,4a3,3,0,1,1,3-3A3,3,0,0,1,22.5,42.2Zm24-19H43.4a5,5,0,0,0-9.8,0H4.5a1,1,0,0,0,0,2H33.6a5,5,0,0,0,9.8,0h3.1a.94.94,0,0,0,1-1A1.08,1.08,0,0,0,46.5,23.2Zm-8,4a3,3,0,1,1,3-3A3,3,0,0,1,38.5,27.2Z"/></g></svg>