<?xml version="1.0" encoding="utf-8"?>
<!-- Generator: Adobe Illustrator 21.0.2, SVG Export Plug-In . SVG Version: 6.00 Build 0)  -->
<svg version="1.1" id="Web" xmlns="http://www.w3.org/2000/svg" xmlns:xlink="http://www.w3.org/1999/xlink" x="0px" y="0px"
	 viewBox="0 0 32 44" style="enable-background:new 0 0 32 44;" xml:space="preserve">
<style type="text/css">
	.st0{}
</style>
<g id="Share">
	<g>
		<path class="st0" d="M8,10c0.3,0,0.5-0.1,0.7-0.3L15,3.4V35c0,0.6,0.4,1,1,1s1-0.4,1-1V3.4l6.3,6.3C23.5,9.9,23.7,10,24,10
			c0.6,0,1-0.4,1-1c0-0.3-0.1-0.5-0.3-0.7l-8-8C16.5,0.1,16.3,0,16,0s-0.5,0.1-0.7,0.3l-8,8C7.1,8.5,7,8.7,7,9C7,9.6,7.4,10,8,10z
			 M31,14H20c-0.6,0-1,0.4-1,1s0.4,1,1,1h10v26H2V16h10c0.6,0,1-0.4,1-1s-0.4-1-1-1H1c-0.6,0-1,0.4-1,1v28c0,0.6,0.4,1,1,1h30
			c0.6,0,1-0.4,1-1V15C32,14.4,31.6,14,31,14z"/>
	</g>
</g>
</svg>
