<?xml version="1.0" encoding="utf-8"?>
<!-- Generator: Adobe Illustrator 21.0.2, SVG Export Plug-In . SVG Version: 6.00 Build 0)  -->
<svg version="1.1" id="Layer_1" xmlns="http://www.w3.org/2000/svg" xmlns:xlink="http://www.w3.org/1999/xlink" x="0px" y="0px"
	 viewBox="0 0 33 45" style="enable-background:new 0 0 33 45;" xml:space="preserve">
<style type="text/css">
	.st0{fill:#00467F;}
	.st1{fill:#FFFFFF;}
</style>
<title>locationsAsset 10</title>
<g id="Layer_2">
	<g>
		<path class="st0" d="M17,1C8.2,1,1,8.2,1,17c0,13,16,28,16,28s16-15,16-28C33,8.2,25.8,1,17,1z M17,42c0,0-14-13-14-25
			C3,9.3,9.3,3,17,3s14,6.3,14,14C31,29,17,42,17,42z M17,9c-4.4,0-8,3.6-8,8s3.6,8,8,8s8-3.6,8-8S21.4,9,17,9z M17,23
			c-3.3,0-6-2.7-6-6s2.7-6,6-6s6,2.7,6,6S20.3,23,17,23z"/>
	</g>
	<g>
		<path class="st1" d="M16,0C7.2,0,0,7.2,0,16c0,13,16,28,16,28s16-15,16-28C32,7.2,24.8,0,16,0z M16,41c0,0-14-13-14-25
			C2,8.3,8.3,2,16,2s14,6.3,14,14C30,28,16,41,16,41z M16,8c-4.4,0-8,3.6-8,8s3.6,8,8,8s8-3.6,8-8S20.4,8,16,8z M16,22
			c-3.3,0-6-2.7-6-6s2.7-6,6-6s6,2.7,6,6S19.3,22,16,22z"/>
	</g>
</g>
</svg>
