<svg xmlns="http://www.w3.org/2000/svg" viewBox="0 0 45 37"><defs><style>.cls-1{isolation:isolate;}.cls-2{mix-blend-mode:multiply;}.cls-3{fill:#995716;}.cls-4{fill:#ffe650;}</style></defs><title>hover_paymentsM</title><g class="cls-1"><g id="Layer_1" data-name="Layer 1"><g id="Layer_2" data-name="Layer 2"><g class="cls-2"><path class="cls-3" d="M8,27H20a1,1,0,0,0,0-2H8a1,1,0,0,0,0,2Zm18,4h4a1,1,0,0,0,1-1V26a1,1,0,0,0-1-1H26a1,1,0,0,0-1,1v4A1,1,0,0,0,26,31ZM43,1H11A2,2,0,0,0,9,3V6a1,1,0,0,0,2,0V3H43V27H40a1,1,0,0,0,0,2h3a2,2,0,0,0,2-2V3A2,2,0,0,0,43,1ZM35,9H3a2,2,0,0,0-2,2V35a2,2,0,0,0,2,2H35a2,2,0,0,0,2-2V11A2,2,0,0,0,35,9Zm0,26H3V21H35Zm0-20H3V11H35ZM8,31h8a1,1,0,0,0,0-2H8a1,1,0,0,0,0,2Z"/></g><path class="cls-4" d="M7,26H19a1,1,0,0,0,0-2H7a1,1,0,0,0,0,2Zm18,4h4a1,1,0,0,0,1-1V25a1,1,0,0,0-1-1H25a1,1,0,0,0-1,1v4A1,1,0,0,0,25,30ZM42,0H10A2,2,0,0,0,8,2V5a1,1,0,0,0,2,0V2H42V26H39a1,1,0,0,0,0,2h3a2,2,0,0,0,2-2V2A2,2,0,0,0,42,0ZM34,8H2a2,2,0,0,0-2,2V34a2,2,0,0,0,2,2H34a2,2,0,0,0,2-2V10A2,2,0,0,0,34,8Zm0,26H2V20H34Zm0-20H2V10H34ZM7,30h8a1,1,0,0,0,0-2H7a1,1,0,0,0,0,2Z"/></g></g></g></svg>