<svg id="General" xmlns="http://www.w3.org/2000/svg" viewBox="0 0 45 45"><defs><style>.cls-1{fill:#00467f;}.cls-2{fill:#fff;}</style></defs><title>Permanent</title><g id="Calendar_1_2x.png" data-name="Calendar 1@2x.png"><path class="cls-1" d="M41,5H37V2a1,1,0,0,0-2,0V5H11V2a.94.94,0,0,0-1-1A.94.94,0,0,0,9,2V5H5A4,4,0,0,0,1,9V41a4,4,0,0,0,4,4H41a4,4,0,0,0,4-4V9A4,4,0,0,0,41,5Zm2,36a2,2,0,0,1-2,2H5a2,2,0,0,1-2-2V17H43Zm0-26H3V9A2,2,0,0,1,5,7H9v3a.94.94,0,0,0,1,1,.94.94,0,0,0,1-1V7H35v3a1,1,0,0,0,2,0V7h4a2,2,0,0,1,2,2Z"/><path class="cls-2" d="M40,4H36V1a1,1,0,0,0-2,0V4H10V1A.94.94,0,0,0,9,0,.94.94,0,0,0,8,1V4H4A4,4,0,0,0,0,8V40a4,4,0,0,0,4,4H40a4,4,0,0,0,4-4V8A4,4,0,0,0,40,4Zm2,36a2,2,0,0,1-2,2H4a2,2,0,0,1-2-2V16H42Zm0-26H2V8A2,2,0,0,1,4,6H8V9a.94.94,0,0,0,1,1,.94.94,0,0,0,1-1V6H34V9a1,1,0,0,0,2,0V6h4a2,2,0,0,1,2,2Z"/></g><g id="Clock_1_2x.png" data-name="Clock 1@2x.png"><path class="cls-2" d="M25.8,23.2a.45.45,0,1,0-.2-.6A.4.4,0,0,0,25.8,23.2Zm-7-.8a.45.45,0,1,0,.6.2A.45.45,0,0,0,18.8,22.4Zm.5,12a.45.45,0,1,0,.2.6A.48.48,0,0,0,19.3,34.4Zm-3.7-6a.5.5,0,1,0,.5.5A.47.47,0,0,0,15.6,28.4Zm6.9,6.9a.5.5,0,1,0,.5.5A.47.47,0,0,0,22.5,35.3ZM16.8,25a.45.45,0,1,0,.2.6A.48.48,0,0,0,16.8,25Zm-.5,6.9a.45.45,0,1,0,.6.2A.4.4,0,0,0,16.3,31.9Zm13.2-3.5a.5.5,0,1,0,.5.5C29.9,28.6,29.7,28.4,29.5,28.4Zm-7-9.7A10.2,10.2,0,1,0,32.7,28.9,10.18,10.18,0,0,0,22.5,18.7Zm0,19.3a9.2,9.2,0,1,1,9.2-9.2A9.18,9.18,0,0,1,22.5,38Zm5.8-13a.45.45,0,1,0,.6.2C28.8,24.9,28.5,24.8,28.3,25Zm-2.5,9.4a.45.45,0,1,0,.6.2A.48.48,0,0,0,25.8,34.4Zm3-2.5a.45.45,0,1,0,.2.6A.48.48,0,0,0,28.8,31.9Zm-2.1-3.5H24.3A1.89,1.89,0,0,0,23,27.1V22a.5.5,0,1,0-1,0v5.1a1.83,1.83,0,0,0-1.4,1.8,1.79,1.79,0,0,0,1.8,1.8,1.83,1.83,0,0,0,1.8-1.4h2.4a.47.47,0,0,0,.5-.5C27.2,28.6,26.9,28.4,26.7,28.4Zm-4.2,1.3a.9.9,0,1,1,.9-.9C23.5,29.3,23,29.7,22.5,29.7Z"/></g></svg>