<svg xmlns="http://www.w3.org/2000/svg" viewBox="0 0 44.98 45"><defs><style>.cls-1{isolation:isolate;}.cls-2{mix-blend-mode:multiply;}.cls-3{fill:#995716;}.cls-4{fill:#ffe650;}</style></defs><title>Hover_temp</title><g class="cls-1"><g id="General"><g id="Clock_1_2x.png" data-name="Clock 1@2x.png"><g class="cls-2"><path class="cls-3" d="M16,35.13a1,1,0,1,0,.37,1.37A1,1,0,0,0,16,35.13ZM10.49,14.63A1,1,0,1,0,10.85,16,1,1,0,0,0,10.49,14.63ZM8,22a1,1,0,1,0,1,1A1,1,0,0,0,8,22ZM30,10.88a1,1,0,1,0-.37-1.37A1,1,0,0,0,30,10.88ZM15,9.14a1,1,0,1,0,1.37.37A1,1,0,0,0,15,9.14ZM23,1A22,22,0,1,0,45,23,22,22,0,0,0,23,1Zm0,42A20,20,0,1,1,43,23,20,20,0,0,1,23,43ZM9.49,29.63a1,1,0,1,0,1.37.37A1,1,0,0,0,9.49,29.63Zm26-15a1,1,0,1,0,1.37.37A1,1,0,0,0,35.47,14.63Zm1,15A1,1,0,1,0,36.83,31,1,1,0,0,0,36.47,29.63ZM38,22a1,1,0,1,0,1,1A1,1,0,0,0,38,22ZM23,37a1,1,0,1,0,1,1A1,1,0,0,0,23,37Zm9-15H26.83A4,4,0,0,0,24,19.14V8a1,1,0,0,0-2,0V19.14A4,4,0,1,0,26.83,24H32a1,1,0,1,0,0-2Zm-9,3a2,2,0,1,1,2-2A2,2,0,0,1,23,25Zm7,10.13a1,1,0,1,0,1.37.37A1,1,0,0,0,30,35.13Z"/></g><path class="cls-4" d="M15,34.13a1,1,0,1,0,.37,1.37A1,1,0,0,0,15,34.13ZM9.49,13.63A1,1,0,1,0,9.85,15,1,1,0,0,0,9.49,13.63ZM7,21a1,1,0,1,0,1,1A1,1,0,0,0,7,21ZM29,9.88a1,1,0,1,0-.37-1.37A1,1,0,0,0,29,9.88ZM14,8.14a1,1,0,1,0,1.37.37A1,1,0,0,0,14,8.14ZM22,0A22,22,0,1,0,44,22,22,22,0,0,0,22,0Zm0,42A20,20,0,1,1,42,22,20,20,0,0,1,22,42ZM8.49,28.63A1,1,0,1,0,9.85,29,1,1,0,0,0,8.49,28.63Zm26-15a1,1,0,1,0,1.37.37A1,1,0,0,0,34.47,13.63Zm1,15A1,1,0,1,0,35.83,30,1,1,0,0,0,35.47,28.63ZM37,21a1,1,0,1,0,1,1A1,1,0,0,0,37,21ZM22,36a1,1,0,1,0,1,1A1,1,0,0,0,22,36Zm9-15H25.83A4,4,0,0,0,23,18.14V7a1,1,0,0,0-2,0V18.14A4,4,0,1,0,25.83,23H31a1,1,0,1,0,0-2Zm-9,3a2,2,0,1,1,2-2A2,2,0,0,1,22,24Zm7,10.13a1,1,0,1,0,1.37.37A1,1,0,0,0,29,34.13Z"/></g></g></g></svg>