<?xml version="1.0" encoding="utf-8"?>
<!-- Generator: Adobe Illustrator 21.0.2, SVG Export Plug-In . SVG Version: 6.00 Build 0)  -->
<svg version="1.1" id="Layer_1" xmlns="http://www.w3.org/2000/svg" xmlns:xlink="http://www.w3.org/1999/xlink" x="0px" y="0px"
	 viewBox="0 0 413 413.1" style="enable-background:new 0 0 413 413.1;" xml:space="preserve">
<style type="text/css">
	.st0{display:none;fill:#2B7DE1;}
	.st1{fill:#E5E5E5;stroke:#BCBCBC;stroke-miterlimit:10;}
	.st2{fill:#CDD6E0;}
	.st3{fill:#334A5E;}
	.st4{fill:#40596B;}
	.st5{fill:#54C0EB;}
	.st6{fill:#FF7058;}
	.st7{fill:#E4EAEF;}
</style>
<circle class="st0" cx="206.8" cy="206.5" r="254.6"/>
<g>
	<path class="st1" d="M299.4,111V24.1H113.5V111H17.2C7.7,111,0,118.7,0,128.2v267.6c0,9.5,7.7,17.2,17.2,17.2h378.6
		c9.5,0,17.2-7.7,17.2-17.2V128.3c0-9.5-7.7-17.2-17.2-17.2L299.4,111L299.4,111z"/>
	<rect x="106.6" class="st2" width="199.6" height="24.1"/>
	<rect x="143.6" y="309.8" class="st3" width="62.8" height="103.3"/>
	<rect x="206.4" y="309.8" class="st4" width="62.8" height="103.3"/>
	<g>
		<rect x="129" y="241.8" class="st5" width="45.6" height="45.6"/>
		<rect x="129" y="149.8" class="st5" width="45.6" height="45.6"/>
		<rect x="238.3" y="149.8" class="st5" width="45.6" height="45.6"/>
		<rect x="238.3" y="241.8" class="st5" width="45.6" height="45.6"/>
		<rect x="334.7" y="149.8" class="st5" width="45.6" height="45.6"/>
		<rect x="334.7" y="241.8" class="st5" width="45.6" height="45.6"/>
		<rect x="334.7" y="333.9" class="st5" width="45.6" height="45.6"/>
		<rect x="32.6" y="149.8" class="st5" width="45.6" height="45.6"/>
		<rect x="32.6" y="241.8" class="st5" width="45.6" height="45.6"/>
		<rect x="32.6" y="333.9" class="st5" width="45.6" height="45.6"/>
	</g>
	<polygon class="st6" points="234.8,59.4 214.2,59.4 214.2,39.6 198.7,39.6 198.7,59.4 178.1,59.4 178.1,75.8 198.7,75.8 
		198.7,96.4 214.2,96.4 214.2,75.8 234.8,75.8 	"/>
	<rect x="113.5" y="24.1" class="st7" width="185" height="8.6"/>
</g>
</svg>
